%TF.GenerationSoftware,KiCad,Pcbnew,8.0.7*%
%TF.CreationDate,2025-01-04T17:01:37+01:00*%
%TF.ProjectId,btrail-powerboard,62747261-696c-42d7-906f-776572626f61,rev?*%
%TF.SameCoordinates,Original*%
%TF.FileFunction,Soldermask,Top*%
%TF.FilePolarity,Negative*%
%FSLAX46Y46*%
G04 Gerber Fmt 4.6, Leading zero omitted, Abs format (unit mm)*
G04 Created by KiCad (PCBNEW 8.0.7) date 2025-01-04 17:01:37*
%MOMM*%
%LPD*%
G01*
G04 APERTURE LIST*
G04 Aperture macros list*
%AMRoundRect*
0 Rectangle with rounded corners*
0 $1 Rounding radius*
0 $2 $3 $4 $5 $6 $7 $8 $9 X,Y pos of 4 corners*
0 Add a 4 corners polygon primitive as box body*
4,1,4,$2,$3,$4,$5,$6,$7,$8,$9,$2,$3,0*
0 Add four circle primitives for the rounded corners*
1,1,$1+$1,$2,$3*
1,1,$1+$1,$4,$5*
1,1,$1+$1,$6,$7*
1,1,$1+$1,$8,$9*
0 Add four rect primitives between the rounded corners*
20,1,$1+$1,$2,$3,$4,$5,0*
20,1,$1+$1,$4,$5,$6,$7,0*
20,1,$1+$1,$6,$7,$8,$9,0*
20,1,$1+$1,$8,$9,$2,$3,0*%
G04 Aperture macros list end*
%ADD10RoundRect,0.150000X0.825000X0.150000X-0.825000X0.150000X-0.825000X-0.150000X0.825000X-0.150000X0*%
%ADD11R,1.050000X1.500000*%
%ADD12O,1.050000X1.500000*%
%ADD13O,0.850000X0.850000*%
%ADD14R,0.850000X0.850000*%
%ADD15C,3.200000*%
%ADD16R,1.500000X1.500000*%
%ADD17C,1.500000*%
G04 APERTURE END LIST*
D10*
%TO.C,U2*%
X194025000Y-47405000D03*
X194025000Y-46135000D03*
X194025000Y-44865000D03*
X194025000Y-43595000D03*
X198975000Y-43595000D03*
X198975000Y-44865000D03*
X198975000Y-46135000D03*
X198975000Y-47405000D03*
%TD*%
D11*
%TO.C,Q2*%
X220230000Y-47360000D03*
D12*
X221500000Y-47360000D03*
X222770000Y-47360000D03*
%TD*%
D11*
%TO.C,Q1*%
X220230000Y-40360000D03*
D12*
X221500000Y-40360000D03*
X222770000Y-40360000D03*
%TD*%
D13*
%TO.C,PWR*%
X192975000Y-38595000D03*
D14*
X193975000Y-38595000D03*
%TD*%
%TO.C,Motor*%
X222000000Y-30000000D03*
D13*
X222000000Y-31000000D03*
%TD*%
%TO.C,LEDs*%
X212500000Y-43500000D03*
X212500000Y-44500000D03*
X212500000Y-45500000D03*
D14*
X212500000Y-46500000D03*
%TD*%
D15*
%TO.C,J1*%
X207552500Y-24250000D03*
X196122500Y-24250000D03*
D16*
X206282500Y-30600000D03*
D17*
X205012500Y-33140000D03*
X203742500Y-30600000D03*
X202472500Y-33140000D03*
X201202500Y-30600000D03*
X199932500Y-33140000D03*
X198662500Y-30600000D03*
X197392500Y-33140000D03*
%TD*%
D13*
%TO.C,ESP32_jack1*%
X212475000Y-39095000D03*
X211475000Y-39095000D03*
X210475000Y-39095000D03*
X209475000Y-39095000D03*
X208475000Y-39095000D03*
X207475000Y-39095000D03*
X206475000Y-39095000D03*
X205475000Y-39095000D03*
D14*
X204475000Y-39095000D03*
%TD*%
%TO.C,DRV_r*%
X218000000Y-28000000D03*
D13*
X218000000Y-29000000D03*
X218000000Y-30000000D03*
X218000000Y-31000000D03*
X218000000Y-32000000D03*
X218000000Y-33000000D03*
%TD*%
D14*
%TO.C,DRV_l*%
X212000000Y-28000000D03*
D13*
X212000000Y-29000000D03*
X212000000Y-30000000D03*
X212000000Y-31000000D03*
X212000000Y-32000000D03*
X212000000Y-33000000D03*
%TD*%
M02*
