%TF.GenerationSoftware,KiCad,Pcbnew,8.0.7*%
%TF.CreationDate,2025-01-04T17:01:35+01:00*%
%TF.ProjectId,btrail-powerboard,62747261-696c-42d7-906f-776572626f61,rev?*%
%TF.SameCoordinates,Original*%
%TF.FileFunction,Drillmap*%
%TF.FilePolarity,Positive*%
%FSLAX45Y45*%
G04 Gerber Fmt 4.5, Leading zero omitted, Abs format (unit mm)*
G04 Created by KiCad (PCBNEW 8.0.7) date 2025-01-04 17:01:35*
%MOMM*%
%LPD*%
G01*
G04 APERTURE LIST*
%ADD10C,0.050000*%
%ADD11C,0.200000*%
%ADD12C,0.320000*%
G04 APERTURE END LIST*
D10*
X19150000Y-2200000D02*
X22450000Y-2200000D01*
X22450000Y-5000000D01*
X19150000Y-5000000D01*
X19150000Y-2200000D01*
D11*
D12*
X19452250Y-2265000D02*
X19772250Y-2585000D01*
X19772250Y-2265000D02*
X19452250Y-2585000D01*
X20595250Y-2265000D02*
X20915250Y-2585000D01*
X20915250Y-2265000D02*
X20595250Y-2585000D01*
D11*
X19408277Y-5313984D02*
X19408277Y-5113984D01*
X19408277Y-5113984D02*
X19455896Y-5113984D01*
X19455896Y-5113984D02*
X19484467Y-5123508D01*
X19484467Y-5123508D02*
X19503515Y-5142555D01*
X19503515Y-5142555D02*
X19513039Y-5161603D01*
X19513039Y-5161603D02*
X19522563Y-5199698D01*
X19522563Y-5199698D02*
X19522563Y-5228270D01*
X19522563Y-5228270D02*
X19513039Y-5266365D01*
X19513039Y-5266365D02*
X19503515Y-5285412D01*
X19503515Y-5285412D02*
X19484467Y-5304460D01*
X19484467Y-5304460D02*
X19455896Y-5313984D01*
X19455896Y-5313984D02*
X19408277Y-5313984D01*
X19608277Y-5313984D02*
X19608277Y-5180650D01*
X19608277Y-5218746D02*
X19617801Y-5199698D01*
X19617801Y-5199698D02*
X19627324Y-5190174D01*
X19627324Y-5190174D02*
X19646372Y-5180650D01*
X19646372Y-5180650D02*
X19665420Y-5180650D01*
X19732086Y-5313984D02*
X19732086Y-5180650D01*
X19732086Y-5113984D02*
X19722563Y-5123508D01*
X19722563Y-5123508D02*
X19732086Y-5133031D01*
X19732086Y-5133031D02*
X19741610Y-5123508D01*
X19741610Y-5123508D02*
X19732086Y-5113984D01*
X19732086Y-5113984D02*
X19732086Y-5133031D01*
X19855896Y-5313984D02*
X19836848Y-5304460D01*
X19836848Y-5304460D02*
X19827324Y-5285412D01*
X19827324Y-5285412D02*
X19827324Y-5113984D01*
X19960658Y-5313984D02*
X19941610Y-5304460D01*
X19941610Y-5304460D02*
X19932086Y-5285412D01*
X19932086Y-5285412D02*
X19932086Y-5113984D01*
X20189229Y-5313984D02*
X20189229Y-5113984D01*
X20189229Y-5113984D02*
X20255896Y-5256841D01*
X20255896Y-5256841D02*
X20322563Y-5113984D01*
X20322563Y-5113984D02*
X20322563Y-5313984D01*
X20503515Y-5313984D02*
X20503515Y-5209222D01*
X20503515Y-5209222D02*
X20493991Y-5190174D01*
X20493991Y-5190174D02*
X20474944Y-5180650D01*
X20474944Y-5180650D02*
X20436848Y-5180650D01*
X20436848Y-5180650D02*
X20417801Y-5190174D01*
X20503515Y-5304460D02*
X20484467Y-5313984D01*
X20484467Y-5313984D02*
X20436848Y-5313984D01*
X20436848Y-5313984D02*
X20417801Y-5304460D01*
X20417801Y-5304460D02*
X20408277Y-5285412D01*
X20408277Y-5285412D02*
X20408277Y-5266365D01*
X20408277Y-5266365D02*
X20417801Y-5247317D01*
X20417801Y-5247317D02*
X20436848Y-5237793D01*
X20436848Y-5237793D02*
X20484467Y-5237793D01*
X20484467Y-5237793D02*
X20503515Y-5228270D01*
X20598753Y-5180650D02*
X20598753Y-5380650D01*
X20598753Y-5190174D02*
X20617801Y-5180650D01*
X20617801Y-5180650D02*
X20655896Y-5180650D01*
X20655896Y-5180650D02*
X20674944Y-5190174D01*
X20674944Y-5190174D02*
X20684467Y-5199698D01*
X20684467Y-5199698D02*
X20693991Y-5218746D01*
X20693991Y-5218746D02*
X20693991Y-5275889D01*
X20693991Y-5275889D02*
X20684467Y-5294936D01*
X20684467Y-5294936D02*
X20674944Y-5304460D01*
X20674944Y-5304460D02*
X20655896Y-5313984D01*
X20655896Y-5313984D02*
X20617801Y-5313984D01*
X20617801Y-5313984D02*
X20598753Y-5304460D01*
X20779705Y-5294936D02*
X20789229Y-5304460D01*
X20789229Y-5304460D02*
X20779705Y-5313984D01*
X20779705Y-5313984D02*
X20770182Y-5304460D01*
X20770182Y-5304460D02*
X20779705Y-5294936D01*
X20779705Y-5294936D02*
X20779705Y-5313984D01*
X20779705Y-5190174D02*
X20789229Y-5199698D01*
X20789229Y-5199698D02*
X20779705Y-5209222D01*
X20779705Y-5209222D02*
X20770182Y-5199698D01*
X20770182Y-5199698D02*
X20779705Y-5190174D01*
X20779705Y-5190174D02*
X20779705Y-5209222D01*
X18947500Y-5542500D02*
X19147500Y-5742500D01*
X19147500Y-5542500D02*
X18947500Y-5742500D01*
X19389229Y-5533984D02*
X19513039Y-5533984D01*
X19513039Y-5533984D02*
X19446372Y-5610174D01*
X19446372Y-5610174D02*
X19474944Y-5610174D01*
X19474944Y-5610174D02*
X19493991Y-5619698D01*
X19493991Y-5619698D02*
X19503515Y-5629222D01*
X19503515Y-5629222D02*
X19513039Y-5648269D01*
X19513039Y-5648269D02*
X19513039Y-5695888D01*
X19513039Y-5695888D02*
X19503515Y-5714936D01*
X19503515Y-5714936D02*
X19493991Y-5724460D01*
X19493991Y-5724460D02*
X19474944Y-5733984D01*
X19474944Y-5733984D02*
X19417801Y-5733984D01*
X19417801Y-5733984D02*
X19398753Y-5724460D01*
X19398753Y-5724460D02*
X19389229Y-5714936D01*
X19598753Y-5714936D02*
X19608277Y-5724460D01*
X19608277Y-5724460D02*
X19598753Y-5733984D01*
X19598753Y-5733984D02*
X19589229Y-5724460D01*
X19589229Y-5724460D02*
X19598753Y-5714936D01*
X19598753Y-5714936D02*
X19598753Y-5733984D01*
X19684467Y-5553031D02*
X19693991Y-5543508D01*
X19693991Y-5543508D02*
X19713039Y-5533984D01*
X19713039Y-5533984D02*
X19760658Y-5533984D01*
X19760658Y-5533984D02*
X19779705Y-5543508D01*
X19779705Y-5543508D02*
X19789229Y-5553031D01*
X19789229Y-5553031D02*
X19798753Y-5572079D01*
X19798753Y-5572079D02*
X19798753Y-5591127D01*
X19798753Y-5591127D02*
X19789229Y-5619698D01*
X19789229Y-5619698D02*
X19674944Y-5733984D01*
X19674944Y-5733984D02*
X19798753Y-5733984D01*
X19922563Y-5533984D02*
X19941610Y-5533984D01*
X19941610Y-5533984D02*
X19960658Y-5543508D01*
X19960658Y-5543508D02*
X19970182Y-5553031D01*
X19970182Y-5553031D02*
X19979705Y-5572079D01*
X19979705Y-5572079D02*
X19989229Y-5610174D01*
X19989229Y-5610174D02*
X19989229Y-5657793D01*
X19989229Y-5657793D02*
X19979705Y-5695888D01*
X19979705Y-5695888D02*
X19970182Y-5714936D01*
X19970182Y-5714936D02*
X19960658Y-5724460D01*
X19960658Y-5724460D02*
X19941610Y-5733984D01*
X19941610Y-5733984D02*
X19922563Y-5733984D01*
X19922563Y-5733984D02*
X19903515Y-5724460D01*
X19903515Y-5724460D02*
X19893991Y-5714936D01*
X19893991Y-5714936D02*
X19884467Y-5695888D01*
X19884467Y-5695888D02*
X19874944Y-5657793D01*
X19874944Y-5657793D02*
X19874944Y-5610174D01*
X19874944Y-5610174D02*
X19884467Y-5572079D01*
X19884467Y-5572079D02*
X19893991Y-5553031D01*
X19893991Y-5553031D02*
X19903515Y-5543508D01*
X19903515Y-5543508D02*
X19922563Y-5533984D01*
X20113039Y-5533984D02*
X20132086Y-5533984D01*
X20132086Y-5533984D02*
X20151134Y-5543508D01*
X20151134Y-5543508D02*
X20160658Y-5553031D01*
X20160658Y-5553031D02*
X20170182Y-5572079D01*
X20170182Y-5572079D02*
X20179705Y-5610174D01*
X20179705Y-5610174D02*
X20179705Y-5657793D01*
X20179705Y-5657793D02*
X20170182Y-5695888D01*
X20170182Y-5695888D02*
X20160658Y-5714936D01*
X20160658Y-5714936D02*
X20151134Y-5724460D01*
X20151134Y-5724460D02*
X20132086Y-5733984D01*
X20132086Y-5733984D02*
X20113039Y-5733984D01*
X20113039Y-5733984D02*
X20093991Y-5724460D01*
X20093991Y-5724460D02*
X20084467Y-5714936D01*
X20084467Y-5714936D02*
X20074944Y-5695888D01*
X20074944Y-5695888D02*
X20065420Y-5657793D01*
X20065420Y-5657793D02*
X20065420Y-5610174D01*
X20065420Y-5610174D02*
X20074944Y-5572079D01*
X20074944Y-5572079D02*
X20084467Y-5553031D01*
X20084467Y-5553031D02*
X20093991Y-5543508D01*
X20093991Y-5543508D02*
X20113039Y-5533984D01*
X20265420Y-5733984D02*
X20265420Y-5600650D01*
X20265420Y-5619698D02*
X20274944Y-5610174D01*
X20274944Y-5610174D02*
X20293991Y-5600650D01*
X20293991Y-5600650D02*
X20322563Y-5600650D01*
X20322563Y-5600650D02*
X20341610Y-5610174D01*
X20341610Y-5610174D02*
X20351134Y-5629222D01*
X20351134Y-5629222D02*
X20351134Y-5733984D01*
X20351134Y-5629222D02*
X20360658Y-5610174D01*
X20360658Y-5610174D02*
X20379705Y-5600650D01*
X20379705Y-5600650D02*
X20408277Y-5600650D01*
X20408277Y-5600650D02*
X20427325Y-5610174D01*
X20427325Y-5610174D02*
X20436848Y-5629222D01*
X20436848Y-5629222D02*
X20436848Y-5733984D01*
X20532086Y-5733984D02*
X20532086Y-5600650D01*
X20532086Y-5619698D02*
X20541610Y-5610174D01*
X20541610Y-5610174D02*
X20560658Y-5600650D01*
X20560658Y-5600650D02*
X20589229Y-5600650D01*
X20589229Y-5600650D02*
X20608277Y-5610174D01*
X20608277Y-5610174D02*
X20617801Y-5629222D01*
X20617801Y-5629222D02*
X20617801Y-5733984D01*
X20617801Y-5629222D02*
X20627325Y-5610174D01*
X20627325Y-5610174D02*
X20646372Y-5600650D01*
X20646372Y-5600650D02*
X20674944Y-5600650D01*
X20674944Y-5600650D02*
X20693991Y-5610174D01*
X20693991Y-5610174D02*
X20703515Y-5629222D01*
X20703515Y-5629222D02*
X20703515Y-5733984D01*
X21093991Y-5524460D02*
X20922563Y-5781603D01*
X21351134Y-5533984D02*
X21370182Y-5533984D01*
X21370182Y-5533984D02*
X21389229Y-5543508D01*
X21389229Y-5543508D02*
X21398753Y-5553031D01*
X21398753Y-5553031D02*
X21408277Y-5572079D01*
X21408277Y-5572079D02*
X21417801Y-5610174D01*
X21417801Y-5610174D02*
X21417801Y-5657793D01*
X21417801Y-5657793D02*
X21408277Y-5695888D01*
X21408277Y-5695888D02*
X21398753Y-5714936D01*
X21398753Y-5714936D02*
X21389229Y-5724460D01*
X21389229Y-5724460D02*
X21370182Y-5733984D01*
X21370182Y-5733984D02*
X21351134Y-5733984D01*
X21351134Y-5733984D02*
X21332087Y-5724460D01*
X21332087Y-5724460D02*
X21322563Y-5714936D01*
X21322563Y-5714936D02*
X21313039Y-5695888D01*
X21313039Y-5695888D02*
X21303515Y-5657793D01*
X21303515Y-5657793D02*
X21303515Y-5610174D01*
X21303515Y-5610174D02*
X21313039Y-5572079D01*
X21313039Y-5572079D02*
X21322563Y-5553031D01*
X21322563Y-5553031D02*
X21332087Y-5543508D01*
X21332087Y-5543508D02*
X21351134Y-5533984D01*
X21503515Y-5714936D02*
X21513039Y-5724460D01*
X21513039Y-5724460D02*
X21503515Y-5733984D01*
X21503515Y-5733984D02*
X21493991Y-5724460D01*
X21493991Y-5724460D02*
X21503515Y-5714936D01*
X21503515Y-5714936D02*
X21503515Y-5733984D01*
X21703515Y-5733984D02*
X21589229Y-5733984D01*
X21646372Y-5733984D02*
X21646372Y-5533984D01*
X21646372Y-5533984D02*
X21627325Y-5562555D01*
X21627325Y-5562555D02*
X21608277Y-5581603D01*
X21608277Y-5581603D02*
X21589229Y-5591127D01*
X21779706Y-5553031D02*
X21789229Y-5543508D01*
X21789229Y-5543508D02*
X21808277Y-5533984D01*
X21808277Y-5533984D02*
X21855896Y-5533984D01*
X21855896Y-5533984D02*
X21874944Y-5543508D01*
X21874944Y-5543508D02*
X21884468Y-5553031D01*
X21884468Y-5553031D02*
X21893991Y-5572079D01*
X21893991Y-5572079D02*
X21893991Y-5591127D01*
X21893991Y-5591127D02*
X21884468Y-5619698D01*
X21884468Y-5619698D02*
X21770182Y-5733984D01*
X21770182Y-5733984D02*
X21893991Y-5733984D01*
X22065420Y-5533984D02*
X22027325Y-5533984D01*
X22027325Y-5533984D02*
X22008277Y-5543508D01*
X22008277Y-5543508D02*
X21998753Y-5553031D01*
X21998753Y-5553031D02*
X21979706Y-5581603D01*
X21979706Y-5581603D02*
X21970182Y-5619698D01*
X21970182Y-5619698D02*
X21970182Y-5695888D01*
X21970182Y-5695888D02*
X21979706Y-5714936D01*
X21979706Y-5714936D02*
X21989229Y-5724460D01*
X21989229Y-5724460D02*
X22008277Y-5733984D01*
X22008277Y-5733984D02*
X22046372Y-5733984D01*
X22046372Y-5733984D02*
X22065420Y-5724460D01*
X22065420Y-5724460D02*
X22074944Y-5714936D01*
X22074944Y-5714936D02*
X22084468Y-5695888D01*
X22084468Y-5695888D02*
X22084468Y-5648269D01*
X22084468Y-5648269D02*
X22074944Y-5629222D01*
X22074944Y-5629222D02*
X22065420Y-5619698D01*
X22065420Y-5619698D02*
X22046372Y-5610174D01*
X22046372Y-5610174D02*
X22008277Y-5610174D01*
X22008277Y-5610174D02*
X21989229Y-5619698D01*
X21989229Y-5619698D02*
X21979706Y-5629222D01*
X21979706Y-5629222D02*
X21970182Y-5648269D01*
X22208277Y-5533984D02*
X22227325Y-5533984D01*
X22227325Y-5533984D02*
X22246372Y-5543508D01*
X22246372Y-5543508D02*
X22255896Y-5553031D01*
X22255896Y-5553031D02*
X22265420Y-5572079D01*
X22265420Y-5572079D02*
X22274944Y-5610174D01*
X22274944Y-5610174D02*
X22274944Y-5657793D01*
X22274944Y-5657793D02*
X22265420Y-5695888D01*
X22265420Y-5695888D02*
X22255896Y-5714936D01*
X22255896Y-5714936D02*
X22246372Y-5724460D01*
X22246372Y-5724460D02*
X22227325Y-5733984D01*
X22227325Y-5733984D02*
X22208277Y-5733984D01*
X22208277Y-5733984D02*
X22189229Y-5724460D01*
X22189229Y-5724460D02*
X22179706Y-5714936D01*
X22179706Y-5714936D02*
X22170182Y-5695888D01*
X22170182Y-5695888D02*
X22160658Y-5657793D01*
X22160658Y-5657793D02*
X22160658Y-5610174D01*
X22160658Y-5610174D02*
X22170182Y-5572079D01*
X22170182Y-5572079D02*
X22179706Y-5553031D01*
X22179706Y-5553031D02*
X22189229Y-5543508D01*
X22189229Y-5543508D02*
X22208277Y-5533984D01*
X22351134Y-5533984D02*
X22351134Y-5572079D01*
X22427325Y-5533984D02*
X22427325Y-5572079D01*
X22722563Y-5810174D02*
X22713039Y-5800650D01*
X22713039Y-5800650D02*
X22693991Y-5772079D01*
X22693991Y-5772079D02*
X22684468Y-5753031D01*
X22684468Y-5753031D02*
X22674944Y-5724460D01*
X22674944Y-5724460D02*
X22665420Y-5676841D01*
X22665420Y-5676841D02*
X22665420Y-5638746D01*
X22665420Y-5638746D02*
X22674944Y-5591127D01*
X22674944Y-5591127D02*
X22684468Y-5562555D01*
X22684468Y-5562555D02*
X22693991Y-5543508D01*
X22693991Y-5543508D02*
X22713039Y-5514936D01*
X22713039Y-5514936D02*
X22722563Y-5505412D01*
X22789229Y-5553031D02*
X22798753Y-5543508D01*
X22798753Y-5543508D02*
X22817801Y-5533984D01*
X22817801Y-5533984D02*
X22865420Y-5533984D01*
X22865420Y-5533984D02*
X22884468Y-5543508D01*
X22884468Y-5543508D02*
X22893991Y-5553031D01*
X22893991Y-5553031D02*
X22903515Y-5572079D01*
X22903515Y-5572079D02*
X22903515Y-5591127D01*
X22903515Y-5591127D02*
X22893991Y-5619698D01*
X22893991Y-5619698D02*
X22779706Y-5733984D01*
X22779706Y-5733984D02*
X22903515Y-5733984D01*
X23141610Y-5733984D02*
X23141610Y-5533984D01*
X23227325Y-5733984D02*
X23227325Y-5629222D01*
X23227325Y-5629222D02*
X23217801Y-5610174D01*
X23217801Y-5610174D02*
X23198753Y-5600650D01*
X23198753Y-5600650D02*
X23170182Y-5600650D01*
X23170182Y-5600650D02*
X23151134Y-5610174D01*
X23151134Y-5610174D02*
X23141610Y-5619698D01*
X23351134Y-5733984D02*
X23332087Y-5724460D01*
X23332087Y-5724460D02*
X23322563Y-5714936D01*
X23322563Y-5714936D02*
X23313039Y-5695888D01*
X23313039Y-5695888D02*
X23313039Y-5638746D01*
X23313039Y-5638746D02*
X23322563Y-5619698D01*
X23322563Y-5619698D02*
X23332087Y-5610174D01*
X23332087Y-5610174D02*
X23351134Y-5600650D01*
X23351134Y-5600650D02*
X23379706Y-5600650D01*
X23379706Y-5600650D02*
X23398753Y-5610174D01*
X23398753Y-5610174D02*
X23408277Y-5619698D01*
X23408277Y-5619698D02*
X23417801Y-5638746D01*
X23417801Y-5638746D02*
X23417801Y-5695888D01*
X23417801Y-5695888D02*
X23408277Y-5714936D01*
X23408277Y-5714936D02*
X23398753Y-5724460D01*
X23398753Y-5724460D02*
X23379706Y-5733984D01*
X23379706Y-5733984D02*
X23351134Y-5733984D01*
X23532087Y-5733984D02*
X23513039Y-5724460D01*
X23513039Y-5724460D02*
X23503515Y-5705412D01*
X23503515Y-5705412D02*
X23503515Y-5533984D01*
X23684468Y-5724460D02*
X23665420Y-5733984D01*
X23665420Y-5733984D02*
X23627325Y-5733984D01*
X23627325Y-5733984D02*
X23608277Y-5724460D01*
X23608277Y-5724460D02*
X23598753Y-5705412D01*
X23598753Y-5705412D02*
X23598753Y-5629222D01*
X23598753Y-5629222D02*
X23608277Y-5610174D01*
X23608277Y-5610174D02*
X23627325Y-5600650D01*
X23627325Y-5600650D02*
X23665420Y-5600650D01*
X23665420Y-5600650D02*
X23684468Y-5610174D01*
X23684468Y-5610174D02*
X23693991Y-5629222D01*
X23693991Y-5629222D02*
X23693991Y-5648269D01*
X23693991Y-5648269D02*
X23598753Y-5667317D01*
X23770182Y-5724460D02*
X23789230Y-5733984D01*
X23789230Y-5733984D02*
X23827325Y-5733984D01*
X23827325Y-5733984D02*
X23846372Y-5724460D01*
X23846372Y-5724460D02*
X23855896Y-5705412D01*
X23855896Y-5705412D02*
X23855896Y-5695888D01*
X23855896Y-5695888D02*
X23846372Y-5676841D01*
X23846372Y-5676841D02*
X23827325Y-5667317D01*
X23827325Y-5667317D02*
X23798753Y-5667317D01*
X23798753Y-5667317D02*
X23779706Y-5657793D01*
X23779706Y-5657793D02*
X23770182Y-5638746D01*
X23770182Y-5638746D02*
X23770182Y-5629222D01*
X23770182Y-5629222D02*
X23779706Y-5610174D01*
X23779706Y-5610174D02*
X23798753Y-5600650D01*
X23798753Y-5600650D02*
X23827325Y-5600650D01*
X23827325Y-5600650D02*
X23846372Y-5610174D01*
X23922563Y-5810174D02*
X23932087Y-5800650D01*
X23932087Y-5800650D02*
X23951134Y-5772079D01*
X23951134Y-5772079D02*
X23960658Y-5753031D01*
X23960658Y-5753031D02*
X23970182Y-5724460D01*
X23970182Y-5724460D02*
X23979706Y-5676841D01*
X23979706Y-5676841D02*
X23979706Y-5638746D01*
X23979706Y-5638746D02*
X23970182Y-5591127D01*
X23970182Y-5591127D02*
X23960658Y-5562555D01*
X23960658Y-5562555D02*
X23951134Y-5543508D01*
X23951134Y-5543508D02*
X23932087Y-5514936D01*
X23932087Y-5514936D02*
X23922563Y-5505412D01*
X24284468Y-5810174D02*
X24274944Y-5800650D01*
X24274944Y-5800650D02*
X24255896Y-5772079D01*
X24255896Y-5772079D02*
X24246372Y-5753031D01*
X24246372Y-5753031D02*
X24236849Y-5724460D01*
X24236849Y-5724460D02*
X24227325Y-5676841D01*
X24227325Y-5676841D02*
X24227325Y-5638746D01*
X24227325Y-5638746D02*
X24236849Y-5591127D01*
X24236849Y-5591127D02*
X24246372Y-5562555D01*
X24246372Y-5562555D02*
X24255896Y-5543508D01*
X24255896Y-5543508D02*
X24274944Y-5514936D01*
X24274944Y-5514936D02*
X24284468Y-5505412D01*
X24360658Y-5600650D02*
X24360658Y-5733984D01*
X24360658Y-5619698D02*
X24370182Y-5610174D01*
X24370182Y-5610174D02*
X24389230Y-5600650D01*
X24389230Y-5600650D02*
X24417801Y-5600650D01*
X24417801Y-5600650D02*
X24436849Y-5610174D01*
X24436849Y-5610174D02*
X24446372Y-5629222D01*
X24446372Y-5629222D02*
X24446372Y-5733984D01*
X24570182Y-5733984D02*
X24551134Y-5724460D01*
X24551134Y-5724460D02*
X24541611Y-5714936D01*
X24541611Y-5714936D02*
X24532087Y-5695888D01*
X24532087Y-5695888D02*
X24532087Y-5638746D01*
X24532087Y-5638746D02*
X24541611Y-5619698D01*
X24541611Y-5619698D02*
X24551134Y-5610174D01*
X24551134Y-5610174D02*
X24570182Y-5600650D01*
X24570182Y-5600650D02*
X24598753Y-5600650D01*
X24598753Y-5600650D02*
X24617801Y-5610174D01*
X24617801Y-5610174D02*
X24627325Y-5619698D01*
X24627325Y-5619698D02*
X24636849Y-5638746D01*
X24636849Y-5638746D02*
X24636849Y-5695888D01*
X24636849Y-5695888D02*
X24627325Y-5714936D01*
X24627325Y-5714936D02*
X24617801Y-5724460D01*
X24617801Y-5724460D02*
X24598753Y-5733984D01*
X24598753Y-5733984D02*
X24570182Y-5733984D01*
X24693992Y-5600650D02*
X24770182Y-5600650D01*
X24722563Y-5533984D02*
X24722563Y-5705412D01*
X24722563Y-5705412D02*
X24732087Y-5724460D01*
X24732087Y-5724460D02*
X24751134Y-5733984D01*
X24751134Y-5733984D02*
X24770182Y-5733984D01*
X24989230Y-5600650D02*
X24989230Y-5800650D01*
X24989230Y-5610174D02*
X25008277Y-5600650D01*
X25008277Y-5600650D02*
X25046373Y-5600650D01*
X25046373Y-5600650D02*
X25065420Y-5610174D01*
X25065420Y-5610174D02*
X25074944Y-5619698D01*
X25074944Y-5619698D02*
X25084468Y-5638746D01*
X25084468Y-5638746D02*
X25084468Y-5695888D01*
X25084468Y-5695888D02*
X25074944Y-5714936D01*
X25074944Y-5714936D02*
X25065420Y-5724460D01*
X25065420Y-5724460D02*
X25046373Y-5733984D01*
X25046373Y-5733984D02*
X25008277Y-5733984D01*
X25008277Y-5733984D02*
X24989230Y-5724460D01*
X25198753Y-5733984D02*
X25179706Y-5724460D01*
X25179706Y-5724460D02*
X25170182Y-5705412D01*
X25170182Y-5705412D02*
X25170182Y-5533984D01*
X25360658Y-5733984D02*
X25360658Y-5629222D01*
X25360658Y-5629222D02*
X25351134Y-5610174D01*
X25351134Y-5610174D02*
X25332087Y-5600650D01*
X25332087Y-5600650D02*
X25293992Y-5600650D01*
X25293992Y-5600650D02*
X25274944Y-5610174D01*
X25360658Y-5724460D02*
X25341611Y-5733984D01*
X25341611Y-5733984D02*
X25293992Y-5733984D01*
X25293992Y-5733984D02*
X25274944Y-5724460D01*
X25274944Y-5724460D02*
X25265420Y-5705412D01*
X25265420Y-5705412D02*
X25265420Y-5686365D01*
X25265420Y-5686365D02*
X25274944Y-5667317D01*
X25274944Y-5667317D02*
X25293992Y-5657793D01*
X25293992Y-5657793D02*
X25341611Y-5657793D01*
X25341611Y-5657793D02*
X25360658Y-5648269D01*
X25427325Y-5600650D02*
X25503515Y-5600650D01*
X25455896Y-5533984D02*
X25455896Y-5705412D01*
X25455896Y-5705412D02*
X25465420Y-5724460D01*
X25465420Y-5724460D02*
X25484468Y-5733984D01*
X25484468Y-5733984D02*
X25503515Y-5733984D01*
X25646373Y-5724460D02*
X25627325Y-5733984D01*
X25627325Y-5733984D02*
X25589230Y-5733984D01*
X25589230Y-5733984D02*
X25570182Y-5724460D01*
X25570182Y-5724460D02*
X25560658Y-5705412D01*
X25560658Y-5705412D02*
X25560658Y-5629222D01*
X25560658Y-5629222D02*
X25570182Y-5610174D01*
X25570182Y-5610174D02*
X25589230Y-5600650D01*
X25589230Y-5600650D02*
X25627325Y-5600650D01*
X25627325Y-5600650D02*
X25646373Y-5610174D01*
X25646373Y-5610174D02*
X25655896Y-5629222D01*
X25655896Y-5629222D02*
X25655896Y-5648269D01*
X25655896Y-5648269D02*
X25560658Y-5667317D01*
X25827325Y-5733984D02*
X25827325Y-5533984D01*
X25827325Y-5724460D02*
X25808277Y-5733984D01*
X25808277Y-5733984D02*
X25770182Y-5733984D01*
X25770182Y-5733984D02*
X25751134Y-5724460D01*
X25751134Y-5724460D02*
X25741611Y-5714936D01*
X25741611Y-5714936D02*
X25732087Y-5695888D01*
X25732087Y-5695888D02*
X25732087Y-5638746D01*
X25732087Y-5638746D02*
X25741611Y-5619698D01*
X25741611Y-5619698D02*
X25751134Y-5610174D01*
X25751134Y-5610174D02*
X25770182Y-5600650D01*
X25770182Y-5600650D02*
X25808277Y-5600650D01*
X25808277Y-5600650D02*
X25827325Y-5610174D01*
X25903515Y-5810174D02*
X25913039Y-5800650D01*
X25913039Y-5800650D02*
X25932087Y-5772079D01*
X25932087Y-5772079D02*
X25941611Y-5753031D01*
X25941611Y-5753031D02*
X25951134Y-5724460D01*
X25951134Y-5724460D02*
X25960658Y-5676841D01*
X25960658Y-5676841D02*
X25960658Y-5638746D01*
X25960658Y-5638746D02*
X25951134Y-5591127D01*
X25951134Y-5591127D02*
X25941611Y-5562555D01*
X25941611Y-5562555D02*
X25932087Y-5543508D01*
X25932087Y-5543508D02*
X25913039Y-5514936D01*
X25913039Y-5514936D02*
X25903515Y-5505412D01*
M02*
