M48
; DRILL file {KiCad 8.0.7} date 2025-01-04T17:01:31+0100
; FORMAT={-:-/ absolute / inch / decimal}
; #@! TF.CreationDate,2025-01-04T17:01:31+01:00
; #@! TF.GenerationSoftware,Kicad,Pcbnew,8.0.7
; #@! TF.FileFunction,Plated,1,2,PTH
FMAT,2
INCH
; #@! TA.AperFunction,Plated,PTH,ViaDrill
T1C0.0118
; #@! TA.AperFunction,Plated,PTH,ComponentDrill
T2C0.0197
; #@! TA.AperFunction,Plated,PTH,ComponentDrill
T3C0.0295
; #@! TA.AperFunction,Plated,PTH,ComponentDrill
T4C0.0299
%
G90
G05
T1
X8.2874Y-1.4567
X8.3661Y-1.3976
T2
X7.5974Y-1.5195
X7.6368Y-1.5195
X8.0502Y-1.5392
X8.0896Y-1.5392
X8.1289Y-1.5392
X8.1683Y-1.5392
X8.2077Y-1.5392
X8.247Y-1.5392
X8.2864Y-1.5392
X8.3258Y-1.5392
X8.3465Y-1.1024
X8.3465Y-1.1417
X8.3465Y-1.1811
X8.3465Y-1.2205
X8.3465Y-1.2598
X8.3465Y-1.2992
X8.3652Y-1.5392
X8.3661Y-1.7126
X8.3661Y-1.752
X8.3661Y-1.7913
X8.3661Y-1.8307
X8.5827Y-1.1024
X8.5827Y-1.1417
X8.5827Y-1.1811
X8.5827Y-1.2205
X8.5827Y-1.2598
X8.5827Y-1.2992
X8.7402Y-1.1811
X8.7402Y-1.2205
T3
X8.6705Y-1.589
X8.6705Y-1.8646
X8.7205Y-1.589
X8.7205Y-1.8646
X8.7705Y-1.589
X8.7705Y-1.8646
T4
X7.7714Y-1.3047
X7.8214Y-1.2047
X7.8714Y-1.3047
X7.9214Y-1.2047
X7.9714Y-1.3047
X8.0214Y-1.2047
X8.0714Y-1.3047
X8.1214Y-1.2047
M30
