%TF.GenerationSoftware,KiCad,Pcbnew,8.0.7*%
%TF.CreationDate,2025-01-04T17:01:37+01:00*%
%TF.ProjectId,btrail-powerboard,62747261-696c-42d7-906f-776572626f61,rev?*%
%TF.SameCoordinates,Original*%
%TF.FileFunction,Legend,Top*%
%TF.FilePolarity,Positive*%
%FSLAX46Y46*%
G04 Gerber Fmt 4.6, Leading zero omitted, Abs format (unit mm)*
G04 Created by KiCad (PCBNEW 8.0.7) date 2025-01-04 17:01:37*
%MOMM*%
%LPD*%
G01*
G04 APERTURE LIST*
%ADD10C,0.150000*%
%ADD11C,0.120000*%
G04 APERTURE END LIST*
D10*
X195738095Y-48354819D02*
X195738095Y-49164342D01*
X195738095Y-49164342D02*
X195785714Y-49259580D01*
X195785714Y-49259580D02*
X195833333Y-49307200D01*
X195833333Y-49307200D02*
X195928571Y-49354819D01*
X195928571Y-49354819D02*
X196119047Y-49354819D01*
X196119047Y-49354819D02*
X196214285Y-49307200D01*
X196214285Y-49307200D02*
X196261904Y-49259580D01*
X196261904Y-49259580D02*
X196309523Y-49164342D01*
X196309523Y-49164342D02*
X196309523Y-48354819D01*
X196738095Y-48450057D02*
X196785714Y-48402438D01*
X196785714Y-48402438D02*
X196880952Y-48354819D01*
X196880952Y-48354819D02*
X197119047Y-48354819D01*
X197119047Y-48354819D02*
X197214285Y-48402438D01*
X197214285Y-48402438D02*
X197261904Y-48450057D01*
X197261904Y-48450057D02*
X197309523Y-48545295D01*
X197309523Y-48545295D02*
X197309523Y-48640533D01*
X197309523Y-48640533D02*
X197261904Y-48783390D01*
X197261904Y-48783390D02*
X196690476Y-49354819D01*
X196690476Y-49354819D02*
X197309523Y-49354819D01*
X221404761Y-44350057D02*
X221309523Y-44302438D01*
X221309523Y-44302438D02*
X221214285Y-44207200D01*
X221214285Y-44207200D02*
X221071428Y-44064342D01*
X221071428Y-44064342D02*
X220976190Y-44016723D01*
X220976190Y-44016723D02*
X220880952Y-44016723D01*
X220928571Y-44254819D02*
X220833333Y-44207200D01*
X220833333Y-44207200D02*
X220738095Y-44111961D01*
X220738095Y-44111961D02*
X220690476Y-43921485D01*
X220690476Y-43921485D02*
X220690476Y-43588152D01*
X220690476Y-43588152D02*
X220738095Y-43397676D01*
X220738095Y-43397676D02*
X220833333Y-43302438D01*
X220833333Y-43302438D02*
X220928571Y-43254819D01*
X220928571Y-43254819D02*
X221119047Y-43254819D01*
X221119047Y-43254819D02*
X221214285Y-43302438D01*
X221214285Y-43302438D02*
X221309523Y-43397676D01*
X221309523Y-43397676D02*
X221357142Y-43588152D01*
X221357142Y-43588152D02*
X221357142Y-43921485D01*
X221357142Y-43921485D02*
X221309523Y-44111961D01*
X221309523Y-44111961D02*
X221214285Y-44207200D01*
X221214285Y-44207200D02*
X221119047Y-44254819D01*
X221119047Y-44254819D02*
X220928571Y-44254819D01*
X221738095Y-43350057D02*
X221785714Y-43302438D01*
X221785714Y-43302438D02*
X221880952Y-43254819D01*
X221880952Y-43254819D02*
X222119047Y-43254819D01*
X222119047Y-43254819D02*
X222214285Y-43302438D01*
X222214285Y-43302438D02*
X222261904Y-43350057D01*
X222261904Y-43350057D02*
X222309523Y-43445295D01*
X222309523Y-43445295D02*
X222309523Y-43540533D01*
X222309523Y-43540533D02*
X222261904Y-43683390D01*
X222261904Y-43683390D02*
X221690476Y-44254819D01*
X221690476Y-44254819D02*
X222309523Y-44254819D01*
X221404761Y-37350057D02*
X221309523Y-37302438D01*
X221309523Y-37302438D02*
X221214285Y-37207200D01*
X221214285Y-37207200D02*
X221071428Y-37064342D01*
X221071428Y-37064342D02*
X220976190Y-37016723D01*
X220976190Y-37016723D02*
X220880952Y-37016723D01*
X220928571Y-37254819D02*
X220833333Y-37207200D01*
X220833333Y-37207200D02*
X220738095Y-37111961D01*
X220738095Y-37111961D02*
X220690476Y-36921485D01*
X220690476Y-36921485D02*
X220690476Y-36588152D01*
X220690476Y-36588152D02*
X220738095Y-36397676D01*
X220738095Y-36397676D02*
X220833333Y-36302438D01*
X220833333Y-36302438D02*
X220928571Y-36254819D01*
X220928571Y-36254819D02*
X221119047Y-36254819D01*
X221119047Y-36254819D02*
X221214285Y-36302438D01*
X221214285Y-36302438D02*
X221309523Y-36397676D01*
X221309523Y-36397676D02*
X221357142Y-36588152D01*
X221357142Y-36588152D02*
X221357142Y-36921485D01*
X221357142Y-36921485D02*
X221309523Y-37111961D01*
X221309523Y-37111961D02*
X221214285Y-37207200D01*
X221214285Y-37207200D02*
X221119047Y-37254819D01*
X221119047Y-37254819D02*
X220928571Y-37254819D01*
X222309523Y-37254819D02*
X221738095Y-37254819D01*
X222023809Y-37254819D02*
X222023809Y-36254819D01*
X222023809Y-36254819D02*
X221928571Y-36397676D01*
X221928571Y-36397676D02*
X221833333Y-36492914D01*
X221833333Y-36492914D02*
X221738095Y-36540533D01*
X195989819Y-39928332D02*
X194989819Y-39928332D01*
X194989819Y-39928332D02*
X194989819Y-39547380D01*
X194989819Y-39547380D02*
X195037438Y-39452142D01*
X195037438Y-39452142D02*
X195085057Y-39404523D01*
X195085057Y-39404523D02*
X195180295Y-39356904D01*
X195180295Y-39356904D02*
X195323152Y-39356904D01*
X195323152Y-39356904D02*
X195418390Y-39404523D01*
X195418390Y-39404523D02*
X195466009Y-39452142D01*
X195466009Y-39452142D02*
X195513628Y-39547380D01*
X195513628Y-39547380D02*
X195513628Y-39928332D01*
X194989819Y-39023570D02*
X195989819Y-38785475D01*
X195989819Y-38785475D02*
X195275533Y-38594999D01*
X195275533Y-38594999D02*
X195989819Y-38404523D01*
X195989819Y-38404523D02*
X194989819Y-38166428D01*
X195989819Y-37214047D02*
X195513628Y-37547380D01*
X195989819Y-37785475D02*
X194989819Y-37785475D01*
X194989819Y-37785475D02*
X194989819Y-37404523D01*
X194989819Y-37404523D02*
X195037438Y-37309285D01*
X195037438Y-37309285D02*
X195085057Y-37261666D01*
X195085057Y-37261666D02*
X195180295Y-37214047D01*
X195180295Y-37214047D02*
X195323152Y-37214047D01*
X195323152Y-37214047D02*
X195418390Y-37261666D01*
X195418390Y-37261666D02*
X195466009Y-37309285D01*
X195466009Y-37309285D02*
X195513628Y-37404523D01*
X195513628Y-37404523D02*
X195513628Y-37785475D01*
X220166666Y-28894819D02*
X220166666Y-27894819D01*
X220166666Y-27894819D02*
X220499999Y-28609104D01*
X220499999Y-28609104D02*
X220833332Y-27894819D01*
X220833332Y-27894819D02*
X220833332Y-28894819D01*
X221452380Y-28894819D02*
X221357142Y-28847200D01*
X221357142Y-28847200D02*
X221309523Y-28799580D01*
X221309523Y-28799580D02*
X221261904Y-28704342D01*
X221261904Y-28704342D02*
X221261904Y-28418628D01*
X221261904Y-28418628D02*
X221309523Y-28323390D01*
X221309523Y-28323390D02*
X221357142Y-28275771D01*
X221357142Y-28275771D02*
X221452380Y-28228152D01*
X221452380Y-28228152D02*
X221595237Y-28228152D01*
X221595237Y-28228152D02*
X221690475Y-28275771D01*
X221690475Y-28275771D02*
X221738094Y-28323390D01*
X221738094Y-28323390D02*
X221785713Y-28418628D01*
X221785713Y-28418628D02*
X221785713Y-28704342D01*
X221785713Y-28704342D02*
X221738094Y-28799580D01*
X221738094Y-28799580D02*
X221690475Y-28847200D01*
X221690475Y-28847200D02*
X221595237Y-28894819D01*
X221595237Y-28894819D02*
X221452380Y-28894819D01*
X222071428Y-28228152D02*
X222452380Y-28228152D01*
X222214285Y-27894819D02*
X222214285Y-28751961D01*
X222214285Y-28751961D02*
X222261904Y-28847200D01*
X222261904Y-28847200D02*
X222357142Y-28894819D01*
X222357142Y-28894819D02*
X222452380Y-28894819D01*
X222928571Y-28894819D02*
X222833333Y-28847200D01*
X222833333Y-28847200D02*
X222785714Y-28799580D01*
X222785714Y-28799580D02*
X222738095Y-28704342D01*
X222738095Y-28704342D02*
X222738095Y-28418628D01*
X222738095Y-28418628D02*
X222785714Y-28323390D01*
X222785714Y-28323390D02*
X222833333Y-28275771D01*
X222833333Y-28275771D02*
X222928571Y-28228152D01*
X222928571Y-28228152D02*
X223071428Y-28228152D01*
X223071428Y-28228152D02*
X223166666Y-28275771D01*
X223166666Y-28275771D02*
X223214285Y-28323390D01*
X223214285Y-28323390D02*
X223261904Y-28418628D01*
X223261904Y-28418628D02*
X223261904Y-28704342D01*
X223261904Y-28704342D02*
X223214285Y-28799580D01*
X223214285Y-28799580D02*
X223166666Y-28847200D01*
X223166666Y-28847200D02*
X223071428Y-28894819D01*
X223071428Y-28894819D02*
X222928571Y-28894819D01*
X223690476Y-28894819D02*
X223690476Y-28228152D01*
X223690476Y-28418628D02*
X223738095Y-28323390D01*
X223738095Y-28323390D02*
X223785714Y-28275771D01*
X223785714Y-28275771D02*
X223880952Y-28228152D01*
X223880952Y-28228152D02*
X223976190Y-28228152D01*
X211452380Y-48514819D02*
X210976190Y-48514819D01*
X210976190Y-48514819D02*
X210976190Y-47514819D01*
X211785714Y-47991009D02*
X212119047Y-47991009D01*
X212261904Y-48514819D02*
X211785714Y-48514819D01*
X211785714Y-48514819D02*
X211785714Y-47514819D01*
X211785714Y-47514819D02*
X212261904Y-47514819D01*
X212690476Y-48514819D02*
X212690476Y-47514819D01*
X212690476Y-47514819D02*
X212928571Y-47514819D01*
X212928571Y-47514819D02*
X213071428Y-47562438D01*
X213071428Y-47562438D02*
X213166666Y-47657676D01*
X213166666Y-47657676D02*
X213214285Y-47752914D01*
X213214285Y-47752914D02*
X213261904Y-47943390D01*
X213261904Y-47943390D02*
X213261904Y-48086247D01*
X213261904Y-48086247D02*
X213214285Y-48276723D01*
X213214285Y-48276723D02*
X213166666Y-48371961D01*
X213166666Y-48371961D02*
X213071428Y-48467200D01*
X213071428Y-48467200D02*
X212928571Y-48514819D01*
X212928571Y-48514819D02*
X212690476Y-48514819D01*
X213642857Y-48467200D02*
X213738095Y-48514819D01*
X213738095Y-48514819D02*
X213928571Y-48514819D01*
X213928571Y-48514819D02*
X214023809Y-48467200D01*
X214023809Y-48467200D02*
X214071428Y-48371961D01*
X214071428Y-48371961D02*
X214071428Y-48324342D01*
X214071428Y-48324342D02*
X214023809Y-48229104D01*
X214023809Y-48229104D02*
X213928571Y-48181485D01*
X213928571Y-48181485D02*
X213785714Y-48181485D01*
X213785714Y-48181485D02*
X213690476Y-48133866D01*
X213690476Y-48133866D02*
X213642857Y-48038628D01*
X213642857Y-48038628D02*
X213642857Y-47991009D01*
X213642857Y-47991009D02*
X213690476Y-47895771D01*
X213690476Y-47895771D02*
X213785714Y-47848152D01*
X213785714Y-47848152D02*
X213928571Y-47848152D01*
X213928571Y-47848152D02*
X214023809Y-47895771D01*
X202846009Y-43618809D02*
X202846009Y-43285476D01*
X203369819Y-43142619D02*
X203369819Y-43618809D01*
X203369819Y-43618809D02*
X202369819Y-43618809D01*
X202369819Y-43618809D02*
X202369819Y-43142619D01*
X203322200Y-42761666D02*
X203369819Y-42618809D01*
X203369819Y-42618809D02*
X203369819Y-42380714D01*
X203369819Y-42380714D02*
X203322200Y-42285476D01*
X203322200Y-42285476D02*
X203274580Y-42237857D01*
X203274580Y-42237857D02*
X203179342Y-42190238D01*
X203179342Y-42190238D02*
X203084104Y-42190238D01*
X203084104Y-42190238D02*
X202988866Y-42237857D01*
X202988866Y-42237857D02*
X202941247Y-42285476D01*
X202941247Y-42285476D02*
X202893628Y-42380714D01*
X202893628Y-42380714D02*
X202846009Y-42571190D01*
X202846009Y-42571190D02*
X202798390Y-42666428D01*
X202798390Y-42666428D02*
X202750771Y-42714047D01*
X202750771Y-42714047D02*
X202655533Y-42761666D01*
X202655533Y-42761666D02*
X202560295Y-42761666D01*
X202560295Y-42761666D02*
X202465057Y-42714047D01*
X202465057Y-42714047D02*
X202417438Y-42666428D01*
X202417438Y-42666428D02*
X202369819Y-42571190D01*
X202369819Y-42571190D02*
X202369819Y-42333095D01*
X202369819Y-42333095D02*
X202417438Y-42190238D01*
X203369819Y-41761666D02*
X202369819Y-41761666D01*
X202369819Y-41761666D02*
X202369819Y-41380714D01*
X202369819Y-41380714D02*
X202417438Y-41285476D01*
X202417438Y-41285476D02*
X202465057Y-41237857D01*
X202465057Y-41237857D02*
X202560295Y-41190238D01*
X202560295Y-41190238D02*
X202703152Y-41190238D01*
X202703152Y-41190238D02*
X202798390Y-41237857D01*
X202798390Y-41237857D02*
X202846009Y-41285476D01*
X202846009Y-41285476D02*
X202893628Y-41380714D01*
X202893628Y-41380714D02*
X202893628Y-41761666D01*
X202369819Y-40856904D02*
X202369819Y-40237857D01*
X202369819Y-40237857D02*
X202750771Y-40571190D01*
X202750771Y-40571190D02*
X202750771Y-40428333D01*
X202750771Y-40428333D02*
X202798390Y-40333095D01*
X202798390Y-40333095D02*
X202846009Y-40285476D01*
X202846009Y-40285476D02*
X202941247Y-40237857D01*
X202941247Y-40237857D02*
X203179342Y-40237857D01*
X203179342Y-40237857D02*
X203274580Y-40285476D01*
X203274580Y-40285476D02*
X203322200Y-40333095D01*
X203322200Y-40333095D02*
X203369819Y-40428333D01*
X203369819Y-40428333D02*
X203369819Y-40714047D01*
X203369819Y-40714047D02*
X203322200Y-40809285D01*
X203322200Y-40809285D02*
X203274580Y-40856904D01*
X202465057Y-39856904D02*
X202417438Y-39809285D01*
X202417438Y-39809285D02*
X202369819Y-39714047D01*
X202369819Y-39714047D02*
X202369819Y-39475952D01*
X202369819Y-39475952D02*
X202417438Y-39380714D01*
X202417438Y-39380714D02*
X202465057Y-39333095D01*
X202465057Y-39333095D02*
X202560295Y-39285476D01*
X202560295Y-39285476D02*
X202655533Y-39285476D01*
X202655533Y-39285476D02*
X202798390Y-39333095D01*
X202798390Y-39333095D02*
X203369819Y-39904523D01*
X203369819Y-39904523D02*
X203369819Y-39285476D01*
X203465057Y-39095000D02*
X203465057Y-38333095D01*
X202703152Y-38094999D02*
X203560295Y-38094999D01*
X203560295Y-38094999D02*
X203655533Y-38142618D01*
X203655533Y-38142618D02*
X203703152Y-38237856D01*
X203703152Y-38237856D02*
X203703152Y-38285475D01*
X202369819Y-38094999D02*
X202417438Y-38142618D01*
X202417438Y-38142618D02*
X202465057Y-38094999D01*
X202465057Y-38094999D02*
X202417438Y-38047380D01*
X202417438Y-38047380D02*
X202369819Y-38094999D01*
X202369819Y-38094999D02*
X202465057Y-38094999D01*
X203369819Y-37190238D02*
X202846009Y-37190238D01*
X202846009Y-37190238D02*
X202750771Y-37237857D01*
X202750771Y-37237857D02*
X202703152Y-37333095D01*
X202703152Y-37333095D02*
X202703152Y-37523571D01*
X202703152Y-37523571D02*
X202750771Y-37618809D01*
X203322200Y-37190238D02*
X203369819Y-37285476D01*
X203369819Y-37285476D02*
X203369819Y-37523571D01*
X203369819Y-37523571D02*
X203322200Y-37618809D01*
X203322200Y-37618809D02*
X203226961Y-37666428D01*
X203226961Y-37666428D02*
X203131723Y-37666428D01*
X203131723Y-37666428D02*
X203036485Y-37618809D01*
X203036485Y-37618809D02*
X202988866Y-37523571D01*
X202988866Y-37523571D02*
X202988866Y-37285476D01*
X202988866Y-37285476D02*
X202941247Y-37190238D01*
X203322200Y-36285476D02*
X203369819Y-36380714D01*
X203369819Y-36380714D02*
X203369819Y-36571190D01*
X203369819Y-36571190D02*
X203322200Y-36666428D01*
X203322200Y-36666428D02*
X203274580Y-36714047D01*
X203274580Y-36714047D02*
X203179342Y-36761666D01*
X203179342Y-36761666D02*
X202893628Y-36761666D01*
X202893628Y-36761666D02*
X202798390Y-36714047D01*
X202798390Y-36714047D02*
X202750771Y-36666428D01*
X202750771Y-36666428D02*
X202703152Y-36571190D01*
X202703152Y-36571190D02*
X202703152Y-36380714D01*
X202703152Y-36380714D02*
X202750771Y-36285476D01*
X203369819Y-35856904D02*
X202369819Y-35856904D01*
X202988866Y-35761666D02*
X203369819Y-35475952D01*
X202703152Y-35475952D02*
X203084104Y-35856904D01*
X203369819Y-34523571D02*
X203369819Y-35094999D01*
X203369819Y-34809285D02*
X202369819Y-34809285D01*
X202369819Y-34809285D02*
X202512676Y-34904523D01*
X202512676Y-34904523D02*
X202607914Y-34999761D01*
X202607914Y-34999761D02*
X202655533Y-35094999D01*
X216119047Y-26894819D02*
X216119047Y-25894819D01*
X216119047Y-25894819D02*
X216357142Y-25894819D01*
X216357142Y-25894819D02*
X216499999Y-25942438D01*
X216499999Y-25942438D02*
X216595237Y-26037676D01*
X216595237Y-26037676D02*
X216642856Y-26132914D01*
X216642856Y-26132914D02*
X216690475Y-26323390D01*
X216690475Y-26323390D02*
X216690475Y-26466247D01*
X216690475Y-26466247D02*
X216642856Y-26656723D01*
X216642856Y-26656723D02*
X216595237Y-26751961D01*
X216595237Y-26751961D02*
X216499999Y-26847200D01*
X216499999Y-26847200D02*
X216357142Y-26894819D01*
X216357142Y-26894819D02*
X216119047Y-26894819D01*
X217690475Y-26894819D02*
X217357142Y-26418628D01*
X217119047Y-26894819D02*
X217119047Y-25894819D01*
X217119047Y-25894819D02*
X217499999Y-25894819D01*
X217499999Y-25894819D02*
X217595237Y-25942438D01*
X217595237Y-25942438D02*
X217642856Y-25990057D01*
X217642856Y-25990057D02*
X217690475Y-26085295D01*
X217690475Y-26085295D02*
X217690475Y-26228152D01*
X217690475Y-26228152D02*
X217642856Y-26323390D01*
X217642856Y-26323390D02*
X217595237Y-26371009D01*
X217595237Y-26371009D02*
X217499999Y-26418628D01*
X217499999Y-26418628D02*
X217119047Y-26418628D01*
X217976190Y-25894819D02*
X218309523Y-26894819D01*
X218309523Y-26894819D02*
X218642856Y-25894819D01*
X218738095Y-26990057D02*
X219499999Y-26990057D01*
X219738095Y-26894819D02*
X219738095Y-26228152D01*
X219738095Y-26418628D02*
X219785714Y-26323390D01*
X219785714Y-26323390D02*
X219833333Y-26275771D01*
X219833333Y-26275771D02*
X219928571Y-26228152D01*
X219928571Y-26228152D02*
X220023809Y-26228152D01*
X210166666Y-26894819D02*
X210166666Y-25894819D01*
X210166666Y-25894819D02*
X210404761Y-25894819D01*
X210404761Y-25894819D02*
X210547618Y-25942438D01*
X210547618Y-25942438D02*
X210642856Y-26037676D01*
X210642856Y-26037676D02*
X210690475Y-26132914D01*
X210690475Y-26132914D02*
X210738094Y-26323390D01*
X210738094Y-26323390D02*
X210738094Y-26466247D01*
X210738094Y-26466247D02*
X210690475Y-26656723D01*
X210690475Y-26656723D02*
X210642856Y-26751961D01*
X210642856Y-26751961D02*
X210547618Y-26847200D01*
X210547618Y-26847200D02*
X210404761Y-26894819D01*
X210404761Y-26894819D02*
X210166666Y-26894819D01*
X211738094Y-26894819D02*
X211404761Y-26418628D01*
X211166666Y-26894819D02*
X211166666Y-25894819D01*
X211166666Y-25894819D02*
X211547618Y-25894819D01*
X211547618Y-25894819D02*
X211642856Y-25942438D01*
X211642856Y-25942438D02*
X211690475Y-25990057D01*
X211690475Y-25990057D02*
X211738094Y-26085295D01*
X211738094Y-26085295D02*
X211738094Y-26228152D01*
X211738094Y-26228152D02*
X211690475Y-26323390D01*
X211690475Y-26323390D02*
X211642856Y-26371009D01*
X211642856Y-26371009D02*
X211547618Y-26418628D01*
X211547618Y-26418628D02*
X211166666Y-26418628D01*
X212023809Y-25894819D02*
X212357142Y-26894819D01*
X212357142Y-26894819D02*
X212690475Y-25894819D01*
X212785714Y-26990057D02*
X213547618Y-26990057D01*
X213928571Y-26894819D02*
X213833333Y-26847200D01*
X213833333Y-26847200D02*
X213785714Y-26751961D01*
X213785714Y-26751961D02*
X213785714Y-25894819D01*
D11*
%TO.C,U2*%
X199440000Y-48295000D02*
X198960000Y-48295000D01*
X199200000Y-47965000D01*
X199440000Y-48295000D01*
G36*
X199440000Y-48295000D02*
G01*
X198960000Y-48295000D01*
X199200000Y-47965000D01*
X199440000Y-48295000D01*
G37*
X196500000Y-42940000D02*
X194550000Y-42940000D01*
X196500000Y-42940000D02*
X198450000Y-42940000D01*
X196500000Y-48060000D02*
X194550000Y-48060000D01*
X196500000Y-48060000D02*
X198450000Y-48060000D01*
%TO.C,Q2*%
X219700000Y-49210000D02*
X223300000Y-49210000D01*
X219661522Y-49198478D02*
G75*
G02*
X221500000Y-44759999I1838478J1838478D01*
G01*
X221500000Y-44760000D02*
G75*
G02*
X223338478Y-49198478I0J-2600000D01*
G01*
%TO.C,Q1*%
X219700000Y-42210000D02*
X223300000Y-42210000D01*
X219661522Y-42198478D02*
G75*
G02*
X221500000Y-37759999I1838478J1838478D01*
G01*
X221500000Y-37760000D02*
G75*
G02*
X223338478Y-42198478I0J-2600000D01*
G01*
%TO.C,PWR*%
X193290000Y-39290000D02*
X192415000Y-39290000D01*
X193290000Y-39203276D02*
X193290000Y-39290000D01*
X192415000Y-38989493D02*
X192415000Y-39290000D01*
X192415000Y-37900000D02*
X192415000Y-38200507D01*
X193290000Y-37900000D02*
X193290000Y-37986724D01*
X193290000Y-37900000D02*
X192415000Y-37900000D01*
X193975000Y-37900000D02*
X194660000Y-37900000D01*
X194660000Y-37900000D02*
X194660000Y-38595000D01*
%TO.C,Motor*%
X221305000Y-29315000D02*
X222000000Y-29315000D01*
X221305000Y-30000000D02*
X221305000Y-29315000D01*
X221305000Y-30685000D02*
X221305000Y-31560000D01*
X221305000Y-30685000D02*
X221391724Y-30685000D01*
X221305000Y-31560000D02*
X221605507Y-31560000D01*
X222394493Y-31560000D02*
X222695000Y-31560000D01*
X222608276Y-30685000D02*
X222695000Y-30685000D01*
X222695000Y-30685000D02*
X222695000Y-31560000D01*
%TO.C,LEDs*%
X211805000Y-45815000D02*
X211805000Y-42940000D01*
X211891724Y-45815000D02*
X211805000Y-45815000D01*
X212105507Y-42940000D02*
X211805000Y-42940000D01*
X213195000Y-42940000D02*
X212894493Y-42940000D01*
X213195000Y-45815000D02*
X213108276Y-45815000D01*
X213195000Y-45815000D02*
X213195000Y-42940000D01*
X213195000Y-46500000D02*
X213195000Y-47185000D01*
X213195000Y-47185000D02*
X212500000Y-47185000D01*
%TO.C,J1*%
X210282500Y-31100000D02*
X210282500Y-30100000D01*
X210282500Y-30100000D02*
X209782500Y-30600000D01*
X209782500Y-30600000D02*
X210282500Y-31100000D01*
X209597500Y-34480000D02*
X209597500Y-16520000D01*
X209597500Y-16520000D02*
X194077500Y-16520000D01*
X194077500Y-34480000D02*
X209597500Y-34480000D01*
X194077500Y-34480000D02*
X194077500Y-16520000D01*
%TO.C,ESP32_jack1*%
X205160000Y-38400000D02*
X213035000Y-38400000D01*
X205160000Y-38486724D02*
X205160000Y-38400000D01*
X213035000Y-38700507D02*
X213035000Y-38400000D01*
X213035000Y-39790000D02*
X213035000Y-39489493D01*
X205160000Y-39790000D02*
X205160000Y-39703276D01*
X205160000Y-39790000D02*
X213035000Y-39790000D01*
X204475000Y-39790000D02*
X203790000Y-39790000D01*
X203790000Y-39790000D02*
X203790000Y-39095000D01*
%TO.C,DRV_r*%
X217305000Y-27315000D02*
X218000000Y-27315000D01*
X217305000Y-28000000D02*
X217305000Y-27315000D01*
X217305000Y-28685000D02*
X217305000Y-33560000D01*
X217305000Y-28685000D02*
X217391724Y-28685000D01*
X217305000Y-33560000D02*
X217605507Y-33560000D01*
X218394493Y-33560000D02*
X218695000Y-33560000D01*
X218608276Y-28685000D02*
X218695000Y-28685000D01*
X218695000Y-28685000D02*
X218695000Y-33560000D01*
%TO.C,DRV_l*%
X211305000Y-27315000D02*
X212000000Y-27315000D01*
X211305000Y-28000000D02*
X211305000Y-27315000D01*
X211305000Y-28685000D02*
X211305000Y-33560000D01*
X211305000Y-28685000D02*
X211391724Y-28685000D01*
X211305000Y-33560000D02*
X211605507Y-33560000D01*
X212394493Y-33560000D02*
X212695000Y-33560000D01*
X212608276Y-28685000D02*
X212695000Y-28685000D01*
X212695000Y-28685000D02*
X212695000Y-33560000D01*
%TD*%
M02*
