%TF.GenerationSoftware,KiCad,Pcbnew,8.0.7*%
%TF.CreationDate,2025-01-04T17:01:37+01:00*%
%TF.ProjectId,btrail-powerboard,62747261-696c-42d7-906f-776572626f61,rev?*%
%TF.SameCoordinates,Original*%
%TF.FileFunction,Copper,L2,Bot*%
%TF.FilePolarity,Positive*%
%FSLAX46Y46*%
G04 Gerber Fmt 4.6, Leading zero omitted, Abs format (unit mm)*
G04 Created by KiCad (PCBNEW 8.0.7) date 2025-01-04 17:01:37*
%MOMM*%
%LPD*%
G01*
G04 APERTURE LIST*
%TA.AperFunction,ComponentPad*%
%ADD10R,1.050000X1.500000*%
%TD*%
%TA.AperFunction,ComponentPad*%
%ADD11O,1.050000X1.500000*%
%TD*%
%TA.AperFunction,ComponentPad*%
%ADD12O,0.850000X0.850000*%
%TD*%
%TA.AperFunction,ComponentPad*%
%ADD13R,0.850000X0.850000*%
%TD*%
%TA.AperFunction,ComponentPad*%
%ADD14R,1.500000X1.500000*%
%TD*%
%TA.AperFunction,ComponentPad*%
%ADD15C,1.500000*%
%TD*%
%TA.AperFunction,ViaPad*%
%ADD16C,0.600000*%
%TD*%
%TA.AperFunction,Conductor*%
%ADD17C,0.200000*%
%TD*%
G04 APERTURE END LIST*
D10*
%TO.P,Q2,1,C*%
%TO.N,Net-(LED1_LED2-Pin_1)*%
X220230000Y-47360000D03*
D11*
%TO.P,Q2,2,B*%
%TO.N,Net-(ESP32_jack1-Pin_3)*%
X221500000Y-47360000D03*
%TO.P,Q2,3,E*%
%TO.N,Net-(DRV_right1-Pin_1)*%
X222770000Y-47360000D03*
%TD*%
D10*
%TO.P,Q1,1,C*%
%TO.N,Net-(LED1_LED2-Pin_3)*%
X220230000Y-40360000D03*
D11*
%TO.P,Q1,2,B*%
%TO.N,Net-(ESP32_jack1-Pin_4)*%
X221500000Y-40360000D03*
%TO.P,Q1,3,E*%
%TO.N,Net-(DRV_right1-Pin_1)*%
X222770000Y-40360000D03*
%TD*%
D12*
%TO.P,PWR,2,Pin_2*%
%TO.N,Net-(DRV_right1-Pin_1)*%
X192975000Y-38595000D03*
D13*
%TO.P,PWR,1,Pin_1*%
%TO.N,Net-(DRV_left1-Pin_2)*%
X193975000Y-38595000D03*
%TD*%
%TO.P,Motor,1,Pin_1*%
%TO.N,Net-(DRV_right1-Pin_3)*%
X222000000Y-30000000D03*
D12*
%TO.P,Motor,2,Pin_2*%
%TO.N,Net-(DRV_right1-Pin_4)*%
X222000000Y-31000000D03*
%TD*%
%TO.P,LEDs,4,Pin_4*%
%TO.N,Net-(DRV_left1-Pin_2)*%
X212500000Y-43500000D03*
%TO.P,LEDs,3,Pin_3*%
%TO.N,Net-(LED1_LED2-Pin_3)*%
X212500000Y-44500000D03*
%TO.P,LEDs,2,Pin_2*%
%TO.N,Net-(DRV_left1-Pin_2)*%
X212500000Y-45500000D03*
D13*
%TO.P,LEDs,1,Pin_1*%
%TO.N,Net-(LED1_LED2-Pin_1)*%
X212500000Y-46500000D03*
%TD*%
D14*
%TO.P,J1,1*%
%TO.N,Net-(DRV_right1-Pin_1)*%
X206282500Y-30600000D03*
D15*
%TO.P,J1,2*%
%TO.N,Net-(DRV_left1-Pin_2)*%
X205012500Y-33140000D03*
%TO.P,J1,3*%
%TO.N,unconnected-(J1-Pad3)*%
X203742500Y-30600000D03*
%TO.P,J1,4*%
%TO.N,unconnected-(J1-Pad4)*%
X202472500Y-33140000D03*
%TO.P,J1,5*%
%TO.N,unconnected-(J1-Pad5)*%
X201202500Y-30600000D03*
%TO.P,J1,6*%
%TO.N,Net-(ESP32_jack1-Pin_7)*%
X199932500Y-33140000D03*
%TO.P,J1,7*%
%TO.N,Net-(ESP32_jack1-Pin_2)*%
X198662500Y-30600000D03*
%TO.P,J1,8*%
%TO.N,Net-(ESP32_jack1-Pin_1)*%
X197392500Y-33140000D03*
%TD*%
D12*
%TO.P,ESP32_jack1,9,Pin_9*%
%TO.N,Net-(DRV_left1-Pin_2)*%
X212475000Y-39095000D03*
%TO.P,ESP32_jack1,8,Pin_8*%
%TO.N,Net-(ESP32_jack1-Pin_8)*%
X211475000Y-39095000D03*
%TO.P,ESP32_jack1,7,Pin_7*%
%TO.N,Net-(ESP32_jack1-Pin_7)*%
X210475000Y-39095000D03*
%TO.P,ESP32_jack1,6,Pin_6*%
%TO.N,Net-(DRV_left1-Pin_4)*%
X209475000Y-39095000D03*
%TO.P,ESP32_jack1,5,Pin_5*%
%TO.N,Net-(DRV_left1-Pin_3)*%
X208475000Y-39095000D03*
%TO.P,ESP32_jack1,4,Pin_4*%
%TO.N,Net-(ESP32_jack1-Pin_4)*%
X207475000Y-39095000D03*
%TO.P,ESP32_jack1,3,Pin_3*%
%TO.N,Net-(ESP32_jack1-Pin_3)*%
X206475000Y-39095000D03*
%TO.P,ESP32_jack1,2,Pin_2*%
%TO.N,Net-(ESP32_jack1-Pin_2)*%
X205475000Y-39095000D03*
D13*
%TO.P,ESP32_jack1,1,Pin_1*%
%TO.N,Net-(ESP32_jack1-Pin_1)*%
X204475000Y-39095000D03*
%TD*%
%TO.P,DRV_r,1,Pin_1*%
%TO.N,Net-(DRV_right1-Pin_1)*%
X218000000Y-28000000D03*
D12*
%TO.P,DRV_r,2,Pin_2*%
%TO.N,Net-(DRV_left1-Pin_2)*%
X218000000Y-29000000D03*
%TO.P,DRV_r,3,Pin_3*%
%TO.N,Net-(DRV_right1-Pin_3)*%
X218000000Y-30000000D03*
%TO.P,DRV_r,4,Pin_4*%
%TO.N,Net-(DRV_right1-Pin_4)*%
X218000000Y-31000000D03*
%TO.P,DRV_r,5,Pin_5*%
%TO.N,unconnected-(DRV_right1-Pin_5-Pad5)*%
X218000000Y-32000000D03*
%TO.P,DRV_r,6,Pin_6*%
%TO.N,unconnected-(DRV_right1-Pin_6-Pad6)*%
X218000000Y-33000000D03*
%TD*%
D13*
%TO.P,DRV_l,1,Pin_1*%
%TO.N,unconnected-(DRV_left1-Pin_1-Pad1)*%
X212000000Y-28000000D03*
D12*
%TO.P,DRV_l,2,Pin_2*%
%TO.N,Net-(DRV_left1-Pin_2)*%
X212000000Y-29000000D03*
%TO.P,DRV_l,3,Pin_3*%
%TO.N,Net-(DRV_left1-Pin_3)*%
X212000000Y-30000000D03*
%TO.P,DRV_l,4,Pin_4*%
%TO.N,Net-(DRV_left1-Pin_4)*%
X212000000Y-31000000D03*
%TO.P,DRV_l,5,Pin_5*%
%TO.N,unconnected-(DRV_left1-Pin_5-Pad5)*%
X212000000Y-32000000D03*
%TO.P,DRV_l,6,Pin_6*%
%TO.N,unconnected-(DRV_left1-Pin_6-Pad6)*%
X212000000Y-33000000D03*
%TD*%
D16*
%TO.N,Net-(DRV_left1-Pin_2)*%
X212500000Y-35500000D03*
%TO.N,Net-(ESP32_jack1-Pin_7)*%
X210500000Y-37000000D03*
%TD*%
D17*
%TO.N,Net-(DRV_right1-Pin_1)*%
X218000000Y-28000000D02*
X217275000Y-27275000D01*
X217275000Y-27275000D02*
X209607500Y-27275000D01*
X209607500Y-27275000D02*
X206282500Y-30600000D01*
%TO.N,Net-(DRV_left1-Pin_2)*%
X207372500Y-35500000D02*
X205012500Y-33140000D01*
X212500000Y-35500000D02*
X207372500Y-35500000D01*
%TO.N,Net-(ESP32_jack1-Pin_7)*%
X203792500Y-37000000D02*
X199932500Y-33140000D01*
X210500000Y-37000000D02*
X203792500Y-37000000D01*
%TO.N,Net-(ESP32_jack1-Pin_4)*%
X207475000Y-40975000D02*
X207475000Y-39095000D01*
X221055000Y-41410000D02*
X207910000Y-41410000D01*
X221500000Y-40965000D02*
X221055000Y-41410000D01*
X207910000Y-41410000D02*
X207475000Y-40975000D01*
X221500000Y-40360000D02*
X221500000Y-40965000D01*
%TO.N,Net-(ESP32_jack1-Pin_3)*%
X206475000Y-41475000D02*
X206475000Y-39095000D01*
X206500000Y-41500000D02*
X206475000Y-41475000D01*
X216745000Y-42000000D02*
X206500000Y-42000000D01*
X221500000Y-46755000D02*
X216745000Y-42000000D01*
X221500000Y-47360000D02*
X221500000Y-46755000D01*
X206500000Y-42000000D02*
X206500000Y-41500000D01*
%TD*%
M02*
