%TF.GenerationSoftware,KiCad,Pcbnew,8.0.7*%
%TF.CreationDate,2025-01-04T17:01:35+01:00*%
%TF.ProjectId,btrail-powerboard,62747261-696c-42d7-906f-776572626f61,rev?*%
%TF.SameCoordinates,Original*%
%TF.FileFunction,Drillmap*%
%TF.FilePolarity,Positive*%
%FSLAX45Y45*%
G04 Gerber Fmt 4.5, Leading zero omitted, Abs format (unit mm)*
G04 Created by KiCad (PCBNEW 8.0.7) date 2025-01-04 17:01:35*
%MOMM*%
%LPD*%
G01*
G04 APERTURE LIST*
%ADD10C,0.050000*%
%ADD11C,0.200000*%
%ADD12C,0.100000*%
G04 APERTURE END LIST*
D10*
X19150000Y-2200000D02*
X22450000Y-2200000D01*
X22450000Y-5000000D01*
X19150000Y-5000000D01*
X19150000Y-2200000D01*
D11*
D12*
X21035000Y-3685000D02*
X21065000Y-3715000D01*
X21065000Y-3685000D02*
X21035000Y-3715000D01*
X21235000Y-3535000D02*
X21265000Y-3565000D01*
X21265000Y-3535000D02*
X21235000Y-3565000D01*
X19322500Y-3859500D02*
G75*
G02*
X19272500Y-3859500I-25000J0D01*
G01*
X19272500Y-3859500D02*
G75*
G02*
X19322500Y-3859500I25000J0D01*
G01*
X19422500Y-3859500D02*
G75*
G02*
X19372500Y-3859500I-25000J0D01*
G01*
X19372500Y-3859500D02*
G75*
G02*
X19422500Y-3859500I25000J0D01*
G01*
X20472500Y-3909500D02*
G75*
G02*
X20422500Y-3909500I-25000J0D01*
G01*
X20422500Y-3909500D02*
G75*
G02*
X20472500Y-3909500I25000J0D01*
G01*
X20572500Y-3909500D02*
G75*
G02*
X20522500Y-3909500I-25000J0D01*
G01*
X20522500Y-3909500D02*
G75*
G02*
X20572500Y-3909500I25000J0D01*
G01*
X20672500Y-3909500D02*
G75*
G02*
X20622500Y-3909500I-25000J0D01*
G01*
X20622500Y-3909500D02*
G75*
G02*
X20672500Y-3909500I25000J0D01*
G01*
X20772500Y-3909500D02*
G75*
G02*
X20722500Y-3909500I-25000J0D01*
G01*
X20722500Y-3909500D02*
G75*
G02*
X20772500Y-3909500I25000J0D01*
G01*
X20872500Y-3909500D02*
G75*
G02*
X20822500Y-3909500I-25000J0D01*
G01*
X20822500Y-3909500D02*
G75*
G02*
X20872500Y-3909500I25000J0D01*
G01*
X20972500Y-3909500D02*
G75*
G02*
X20922500Y-3909500I-25000J0D01*
G01*
X20922500Y-3909500D02*
G75*
G02*
X20972500Y-3909500I25000J0D01*
G01*
X21072500Y-3909500D02*
G75*
G02*
X21022500Y-3909500I-25000J0D01*
G01*
X21022500Y-3909500D02*
G75*
G02*
X21072500Y-3909500I25000J0D01*
G01*
X21172500Y-3909500D02*
G75*
G02*
X21122500Y-3909500I-25000J0D01*
G01*
X21122500Y-3909500D02*
G75*
G02*
X21172500Y-3909500I25000J0D01*
G01*
X21225000Y-2800000D02*
G75*
G02*
X21175000Y-2800000I-25000J0D01*
G01*
X21175000Y-2800000D02*
G75*
G02*
X21225000Y-2800000I25000J0D01*
G01*
X21225000Y-2900000D02*
G75*
G02*
X21175000Y-2900000I-25000J0D01*
G01*
X21175000Y-2900000D02*
G75*
G02*
X21225000Y-2900000I25000J0D01*
G01*
X21225000Y-3000000D02*
G75*
G02*
X21175000Y-3000000I-25000J0D01*
G01*
X21175000Y-3000000D02*
G75*
G02*
X21225000Y-3000000I25000J0D01*
G01*
X21225000Y-3100000D02*
G75*
G02*
X21175000Y-3100000I-25000J0D01*
G01*
X21175000Y-3100000D02*
G75*
G02*
X21225000Y-3100000I25000J0D01*
G01*
X21225000Y-3200000D02*
G75*
G02*
X21175000Y-3200000I-25000J0D01*
G01*
X21175000Y-3200000D02*
G75*
G02*
X21225000Y-3200000I25000J0D01*
G01*
X21225000Y-3300000D02*
G75*
G02*
X21175000Y-3300000I-25000J0D01*
G01*
X21175000Y-3300000D02*
G75*
G02*
X21225000Y-3300000I25000J0D01*
G01*
X21272500Y-3909500D02*
G75*
G02*
X21222500Y-3909500I-25000J0D01*
G01*
X21222500Y-3909500D02*
G75*
G02*
X21272500Y-3909500I25000J0D01*
G01*
X21275000Y-4350000D02*
G75*
G02*
X21225000Y-4350000I-25000J0D01*
G01*
X21225000Y-4350000D02*
G75*
G02*
X21275000Y-4350000I25000J0D01*
G01*
X21275000Y-4450000D02*
G75*
G02*
X21225000Y-4450000I-25000J0D01*
G01*
X21225000Y-4450000D02*
G75*
G02*
X21275000Y-4450000I25000J0D01*
G01*
X21275000Y-4550000D02*
G75*
G02*
X21225000Y-4550000I-25000J0D01*
G01*
X21225000Y-4550000D02*
G75*
G02*
X21275000Y-4550000I25000J0D01*
G01*
X21275000Y-4650000D02*
G75*
G02*
X21225000Y-4650000I-25000J0D01*
G01*
X21225000Y-4650000D02*
G75*
G02*
X21275000Y-4650000I25000J0D01*
G01*
X21825000Y-2800000D02*
G75*
G02*
X21775000Y-2800000I-25000J0D01*
G01*
X21775000Y-2800000D02*
G75*
G02*
X21825000Y-2800000I25000J0D01*
G01*
X21825000Y-2900000D02*
G75*
G02*
X21775000Y-2900000I-25000J0D01*
G01*
X21775000Y-2900000D02*
G75*
G02*
X21825000Y-2900000I25000J0D01*
G01*
X21825000Y-3000000D02*
G75*
G02*
X21775000Y-3000000I-25000J0D01*
G01*
X21775000Y-3000000D02*
G75*
G02*
X21825000Y-3000000I25000J0D01*
G01*
X21825000Y-3100000D02*
G75*
G02*
X21775000Y-3100000I-25000J0D01*
G01*
X21775000Y-3100000D02*
G75*
G02*
X21825000Y-3100000I25000J0D01*
G01*
X21825000Y-3200000D02*
G75*
G02*
X21775000Y-3200000I-25000J0D01*
G01*
X21775000Y-3200000D02*
G75*
G02*
X21825000Y-3200000I25000J0D01*
G01*
X21825000Y-3300000D02*
G75*
G02*
X21775000Y-3300000I-25000J0D01*
G01*
X21775000Y-3300000D02*
G75*
G02*
X21825000Y-3300000I25000J0D01*
G01*
X22225000Y-3000000D02*
G75*
G02*
X22175000Y-3000000I-25000J0D01*
G01*
X22175000Y-3000000D02*
G75*
G02*
X22225000Y-3000000I25000J0D01*
G01*
X22225000Y-3100000D02*
G75*
G02*
X22175000Y-3100000I-25000J0D01*
G01*
X22175000Y-3100000D02*
G75*
G02*
X22225000Y-3100000I25000J0D01*
G01*
X22023000Y-3998500D02*
X22023000Y-4073500D01*
X21985500Y-4036000D02*
X22060500Y-4036000D01*
X22023000Y-4698500D02*
X22023000Y-4773500D01*
X21985500Y-4736000D02*
X22060500Y-4736000D01*
X22150000Y-3998500D02*
X22150000Y-4073500D01*
X22112500Y-4036000D02*
X22187500Y-4036000D01*
X22150000Y-4698500D02*
X22150000Y-4773500D01*
X22112500Y-4736000D02*
X22187500Y-4736000D01*
X22277000Y-3998500D02*
X22277000Y-4073500D01*
X22239500Y-4036000D02*
X22314500Y-4036000D01*
X22277000Y-4698500D02*
X22277000Y-4773500D01*
X22239500Y-4736000D02*
X22314500Y-4736000D01*
X19766120Y-3340870D02*
X19766120Y-3287130D01*
X19712380Y-3287130D01*
X19712380Y-3340870D01*
X19766120Y-3340870D01*
X19893120Y-3086870D02*
X19893120Y-3033130D01*
X19839380Y-3033130D01*
X19839380Y-3086870D01*
X19893120Y-3086870D01*
X20020120Y-3340870D02*
X20020120Y-3287130D01*
X19966380Y-3287130D01*
X19966380Y-3340870D01*
X20020120Y-3340870D01*
X20147120Y-3086870D02*
X20147120Y-3033130D01*
X20093380Y-3033130D01*
X20093380Y-3086870D01*
X20147120Y-3086870D01*
X20274120Y-3340870D02*
X20274120Y-3287130D01*
X20220380Y-3287130D01*
X20220380Y-3340870D01*
X20274120Y-3340870D01*
X20401120Y-3086870D02*
X20401120Y-3033130D01*
X20347380Y-3033130D01*
X20347380Y-3086870D01*
X20401120Y-3086870D01*
X20528120Y-3340870D02*
X20528120Y-3287130D01*
X20474380Y-3287130D01*
X20474380Y-3340870D01*
X20528120Y-3340870D01*
X20655120Y-3086870D02*
X20655120Y-3033130D01*
X20601380Y-3033130D01*
X20601380Y-3086870D01*
X20655120Y-3086870D01*
D11*
X19408277Y-5313984D02*
X19408277Y-5113984D01*
X19408277Y-5113984D02*
X19455896Y-5113984D01*
X19455896Y-5113984D02*
X19484467Y-5123508D01*
X19484467Y-5123508D02*
X19503515Y-5142555D01*
X19503515Y-5142555D02*
X19513039Y-5161603D01*
X19513039Y-5161603D02*
X19522563Y-5199698D01*
X19522563Y-5199698D02*
X19522563Y-5228270D01*
X19522563Y-5228270D02*
X19513039Y-5266365D01*
X19513039Y-5266365D02*
X19503515Y-5285412D01*
X19503515Y-5285412D02*
X19484467Y-5304460D01*
X19484467Y-5304460D02*
X19455896Y-5313984D01*
X19455896Y-5313984D02*
X19408277Y-5313984D01*
X19608277Y-5313984D02*
X19608277Y-5180650D01*
X19608277Y-5218746D02*
X19617801Y-5199698D01*
X19617801Y-5199698D02*
X19627324Y-5190174D01*
X19627324Y-5190174D02*
X19646372Y-5180650D01*
X19646372Y-5180650D02*
X19665420Y-5180650D01*
X19732086Y-5313984D02*
X19732086Y-5180650D01*
X19732086Y-5113984D02*
X19722563Y-5123508D01*
X19722563Y-5123508D02*
X19732086Y-5133031D01*
X19732086Y-5133031D02*
X19741610Y-5123508D01*
X19741610Y-5123508D02*
X19732086Y-5113984D01*
X19732086Y-5113984D02*
X19732086Y-5133031D01*
X19855896Y-5313984D02*
X19836848Y-5304460D01*
X19836848Y-5304460D02*
X19827324Y-5285412D01*
X19827324Y-5285412D02*
X19827324Y-5113984D01*
X19960658Y-5313984D02*
X19941610Y-5304460D01*
X19941610Y-5304460D02*
X19932086Y-5285412D01*
X19932086Y-5285412D02*
X19932086Y-5113984D01*
X20189229Y-5313984D02*
X20189229Y-5113984D01*
X20189229Y-5113984D02*
X20255896Y-5256841D01*
X20255896Y-5256841D02*
X20322563Y-5113984D01*
X20322563Y-5113984D02*
X20322563Y-5313984D01*
X20503515Y-5313984D02*
X20503515Y-5209222D01*
X20503515Y-5209222D02*
X20493991Y-5190174D01*
X20493991Y-5190174D02*
X20474944Y-5180650D01*
X20474944Y-5180650D02*
X20436848Y-5180650D01*
X20436848Y-5180650D02*
X20417801Y-5190174D01*
X20503515Y-5304460D02*
X20484467Y-5313984D01*
X20484467Y-5313984D02*
X20436848Y-5313984D01*
X20436848Y-5313984D02*
X20417801Y-5304460D01*
X20417801Y-5304460D02*
X20408277Y-5285412D01*
X20408277Y-5285412D02*
X20408277Y-5266365D01*
X20408277Y-5266365D02*
X20417801Y-5247317D01*
X20417801Y-5247317D02*
X20436848Y-5237793D01*
X20436848Y-5237793D02*
X20484467Y-5237793D01*
X20484467Y-5237793D02*
X20503515Y-5228270D01*
X20598753Y-5180650D02*
X20598753Y-5380650D01*
X20598753Y-5190174D02*
X20617801Y-5180650D01*
X20617801Y-5180650D02*
X20655896Y-5180650D01*
X20655896Y-5180650D02*
X20674944Y-5190174D01*
X20674944Y-5190174D02*
X20684467Y-5199698D01*
X20684467Y-5199698D02*
X20693991Y-5218746D01*
X20693991Y-5218746D02*
X20693991Y-5275889D01*
X20693991Y-5275889D02*
X20684467Y-5294936D01*
X20684467Y-5294936D02*
X20674944Y-5304460D01*
X20674944Y-5304460D02*
X20655896Y-5313984D01*
X20655896Y-5313984D02*
X20617801Y-5313984D01*
X20617801Y-5313984D02*
X20598753Y-5304460D01*
X20779705Y-5294936D02*
X20789229Y-5304460D01*
X20789229Y-5304460D02*
X20779705Y-5313984D01*
X20779705Y-5313984D02*
X20770182Y-5304460D01*
X20770182Y-5304460D02*
X20779705Y-5294936D01*
X20779705Y-5294936D02*
X20779705Y-5313984D01*
X20779705Y-5190174D02*
X20789229Y-5199698D01*
X20789229Y-5199698D02*
X20779705Y-5209222D01*
X20779705Y-5209222D02*
X20770182Y-5199698D01*
X20770182Y-5199698D02*
X20779705Y-5190174D01*
X20779705Y-5190174D02*
X20779705Y-5209222D01*
D12*
X19117500Y-5627500D02*
X19147500Y-5657500D01*
X19147500Y-5627500D02*
X19117500Y-5657500D01*
D11*
X19446372Y-5533984D02*
X19465420Y-5533984D01*
X19465420Y-5533984D02*
X19484467Y-5543508D01*
X19484467Y-5543508D02*
X19493991Y-5553031D01*
X19493991Y-5553031D02*
X19503515Y-5572079D01*
X19503515Y-5572079D02*
X19513039Y-5610174D01*
X19513039Y-5610174D02*
X19513039Y-5657793D01*
X19513039Y-5657793D02*
X19503515Y-5695888D01*
X19503515Y-5695888D02*
X19493991Y-5714936D01*
X19493991Y-5714936D02*
X19484467Y-5724460D01*
X19484467Y-5724460D02*
X19465420Y-5733984D01*
X19465420Y-5733984D02*
X19446372Y-5733984D01*
X19446372Y-5733984D02*
X19427324Y-5724460D01*
X19427324Y-5724460D02*
X19417801Y-5714936D01*
X19417801Y-5714936D02*
X19408277Y-5695888D01*
X19408277Y-5695888D02*
X19398753Y-5657793D01*
X19398753Y-5657793D02*
X19398753Y-5610174D01*
X19398753Y-5610174D02*
X19408277Y-5572079D01*
X19408277Y-5572079D02*
X19417801Y-5553031D01*
X19417801Y-5553031D02*
X19427324Y-5543508D01*
X19427324Y-5543508D02*
X19446372Y-5533984D01*
X19598753Y-5714936D02*
X19608277Y-5724460D01*
X19608277Y-5724460D02*
X19598753Y-5733984D01*
X19598753Y-5733984D02*
X19589229Y-5724460D01*
X19589229Y-5724460D02*
X19598753Y-5714936D01*
X19598753Y-5714936D02*
X19598753Y-5733984D01*
X19674944Y-5533984D02*
X19798753Y-5533984D01*
X19798753Y-5533984D02*
X19732086Y-5610174D01*
X19732086Y-5610174D02*
X19760658Y-5610174D01*
X19760658Y-5610174D02*
X19779705Y-5619698D01*
X19779705Y-5619698D02*
X19789229Y-5629222D01*
X19789229Y-5629222D02*
X19798753Y-5648269D01*
X19798753Y-5648269D02*
X19798753Y-5695888D01*
X19798753Y-5695888D02*
X19789229Y-5714936D01*
X19789229Y-5714936D02*
X19779705Y-5724460D01*
X19779705Y-5724460D02*
X19760658Y-5733984D01*
X19760658Y-5733984D02*
X19703515Y-5733984D01*
X19703515Y-5733984D02*
X19684467Y-5724460D01*
X19684467Y-5724460D02*
X19674944Y-5714936D01*
X19922563Y-5533984D02*
X19941610Y-5533984D01*
X19941610Y-5533984D02*
X19960658Y-5543508D01*
X19960658Y-5543508D02*
X19970182Y-5553031D01*
X19970182Y-5553031D02*
X19979705Y-5572079D01*
X19979705Y-5572079D02*
X19989229Y-5610174D01*
X19989229Y-5610174D02*
X19989229Y-5657793D01*
X19989229Y-5657793D02*
X19979705Y-5695888D01*
X19979705Y-5695888D02*
X19970182Y-5714936D01*
X19970182Y-5714936D02*
X19960658Y-5724460D01*
X19960658Y-5724460D02*
X19941610Y-5733984D01*
X19941610Y-5733984D02*
X19922563Y-5733984D01*
X19922563Y-5733984D02*
X19903515Y-5724460D01*
X19903515Y-5724460D02*
X19893991Y-5714936D01*
X19893991Y-5714936D02*
X19884467Y-5695888D01*
X19884467Y-5695888D02*
X19874944Y-5657793D01*
X19874944Y-5657793D02*
X19874944Y-5610174D01*
X19874944Y-5610174D02*
X19884467Y-5572079D01*
X19884467Y-5572079D02*
X19893991Y-5553031D01*
X19893991Y-5553031D02*
X19903515Y-5543508D01*
X19903515Y-5543508D02*
X19922563Y-5533984D01*
X20113039Y-5533984D02*
X20132086Y-5533984D01*
X20132086Y-5533984D02*
X20151134Y-5543508D01*
X20151134Y-5543508D02*
X20160658Y-5553031D01*
X20160658Y-5553031D02*
X20170182Y-5572079D01*
X20170182Y-5572079D02*
X20179705Y-5610174D01*
X20179705Y-5610174D02*
X20179705Y-5657793D01*
X20179705Y-5657793D02*
X20170182Y-5695888D01*
X20170182Y-5695888D02*
X20160658Y-5714936D01*
X20160658Y-5714936D02*
X20151134Y-5724460D01*
X20151134Y-5724460D02*
X20132086Y-5733984D01*
X20132086Y-5733984D02*
X20113039Y-5733984D01*
X20113039Y-5733984D02*
X20093991Y-5724460D01*
X20093991Y-5724460D02*
X20084467Y-5714936D01*
X20084467Y-5714936D02*
X20074944Y-5695888D01*
X20074944Y-5695888D02*
X20065420Y-5657793D01*
X20065420Y-5657793D02*
X20065420Y-5610174D01*
X20065420Y-5610174D02*
X20074944Y-5572079D01*
X20074944Y-5572079D02*
X20084467Y-5553031D01*
X20084467Y-5553031D02*
X20093991Y-5543508D01*
X20093991Y-5543508D02*
X20113039Y-5533984D01*
X20265420Y-5733984D02*
X20265420Y-5600650D01*
X20265420Y-5619698D02*
X20274944Y-5610174D01*
X20274944Y-5610174D02*
X20293991Y-5600650D01*
X20293991Y-5600650D02*
X20322563Y-5600650D01*
X20322563Y-5600650D02*
X20341610Y-5610174D01*
X20341610Y-5610174D02*
X20351134Y-5629222D01*
X20351134Y-5629222D02*
X20351134Y-5733984D01*
X20351134Y-5629222D02*
X20360658Y-5610174D01*
X20360658Y-5610174D02*
X20379705Y-5600650D01*
X20379705Y-5600650D02*
X20408277Y-5600650D01*
X20408277Y-5600650D02*
X20427325Y-5610174D01*
X20427325Y-5610174D02*
X20436848Y-5629222D01*
X20436848Y-5629222D02*
X20436848Y-5733984D01*
X20532086Y-5733984D02*
X20532086Y-5600650D01*
X20532086Y-5619698D02*
X20541610Y-5610174D01*
X20541610Y-5610174D02*
X20560658Y-5600650D01*
X20560658Y-5600650D02*
X20589229Y-5600650D01*
X20589229Y-5600650D02*
X20608277Y-5610174D01*
X20608277Y-5610174D02*
X20617801Y-5629222D01*
X20617801Y-5629222D02*
X20617801Y-5733984D01*
X20617801Y-5629222D02*
X20627325Y-5610174D01*
X20627325Y-5610174D02*
X20646372Y-5600650D01*
X20646372Y-5600650D02*
X20674944Y-5600650D01*
X20674944Y-5600650D02*
X20693991Y-5610174D01*
X20693991Y-5610174D02*
X20703515Y-5629222D01*
X20703515Y-5629222D02*
X20703515Y-5733984D01*
X21093991Y-5524460D02*
X20922563Y-5781603D01*
X21351134Y-5533984D02*
X21370182Y-5533984D01*
X21370182Y-5533984D02*
X21389229Y-5543508D01*
X21389229Y-5543508D02*
X21398753Y-5553031D01*
X21398753Y-5553031D02*
X21408277Y-5572079D01*
X21408277Y-5572079D02*
X21417801Y-5610174D01*
X21417801Y-5610174D02*
X21417801Y-5657793D01*
X21417801Y-5657793D02*
X21408277Y-5695888D01*
X21408277Y-5695888D02*
X21398753Y-5714936D01*
X21398753Y-5714936D02*
X21389229Y-5724460D01*
X21389229Y-5724460D02*
X21370182Y-5733984D01*
X21370182Y-5733984D02*
X21351134Y-5733984D01*
X21351134Y-5733984D02*
X21332087Y-5724460D01*
X21332087Y-5724460D02*
X21322563Y-5714936D01*
X21322563Y-5714936D02*
X21313039Y-5695888D01*
X21313039Y-5695888D02*
X21303515Y-5657793D01*
X21303515Y-5657793D02*
X21303515Y-5610174D01*
X21303515Y-5610174D02*
X21313039Y-5572079D01*
X21313039Y-5572079D02*
X21322563Y-5553031D01*
X21322563Y-5553031D02*
X21332087Y-5543508D01*
X21332087Y-5543508D02*
X21351134Y-5533984D01*
X21503515Y-5714936D02*
X21513039Y-5724460D01*
X21513039Y-5724460D02*
X21503515Y-5733984D01*
X21503515Y-5733984D02*
X21493991Y-5724460D01*
X21493991Y-5724460D02*
X21503515Y-5714936D01*
X21503515Y-5714936D02*
X21503515Y-5733984D01*
X21636848Y-5533984D02*
X21655896Y-5533984D01*
X21655896Y-5533984D02*
X21674944Y-5543508D01*
X21674944Y-5543508D02*
X21684468Y-5553031D01*
X21684468Y-5553031D02*
X21693991Y-5572079D01*
X21693991Y-5572079D02*
X21703515Y-5610174D01*
X21703515Y-5610174D02*
X21703515Y-5657793D01*
X21703515Y-5657793D02*
X21693991Y-5695888D01*
X21693991Y-5695888D02*
X21684468Y-5714936D01*
X21684468Y-5714936D02*
X21674944Y-5724460D01*
X21674944Y-5724460D02*
X21655896Y-5733984D01*
X21655896Y-5733984D02*
X21636848Y-5733984D01*
X21636848Y-5733984D02*
X21617801Y-5724460D01*
X21617801Y-5724460D02*
X21608277Y-5714936D01*
X21608277Y-5714936D02*
X21598753Y-5695888D01*
X21598753Y-5695888D02*
X21589229Y-5657793D01*
X21589229Y-5657793D02*
X21589229Y-5610174D01*
X21589229Y-5610174D02*
X21598753Y-5572079D01*
X21598753Y-5572079D02*
X21608277Y-5553031D01*
X21608277Y-5553031D02*
X21617801Y-5543508D01*
X21617801Y-5543508D02*
X21636848Y-5533984D01*
X21893991Y-5733984D02*
X21779706Y-5733984D01*
X21836848Y-5733984D02*
X21836848Y-5533984D01*
X21836848Y-5533984D02*
X21817801Y-5562555D01*
X21817801Y-5562555D02*
X21798753Y-5581603D01*
X21798753Y-5581603D02*
X21779706Y-5591127D01*
X22084468Y-5733984D02*
X21970182Y-5733984D01*
X22027325Y-5733984D02*
X22027325Y-5533984D01*
X22027325Y-5533984D02*
X22008277Y-5562555D01*
X22008277Y-5562555D02*
X21989229Y-5581603D01*
X21989229Y-5581603D02*
X21970182Y-5591127D01*
X22198753Y-5619698D02*
X22179706Y-5610174D01*
X22179706Y-5610174D02*
X22170182Y-5600650D01*
X22170182Y-5600650D02*
X22160658Y-5581603D01*
X22160658Y-5581603D02*
X22160658Y-5572079D01*
X22160658Y-5572079D02*
X22170182Y-5553031D01*
X22170182Y-5553031D02*
X22179706Y-5543508D01*
X22179706Y-5543508D02*
X22198753Y-5533984D01*
X22198753Y-5533984D02*
X22236849Y-5533984D01*
X22236849Y-5533984D02*
X22255896Y-5543508D01*
X22255896Y-5543508D02*
X22265420Y-5553031D01*
X22265420Y-5553031D02*
X22274944Y-5572079D01*
X22274944Y-5572079D02*
X22274944Y-5581603D01*
X22274944Y-5581603D02*
X22265420Y-5600650D01*
X22265420Y-5600650D02*
X22255896Y-5610174D01*
X22255896Y-5610174D02*
X22236849Y-5619698D01*
X22236849Y-5619698D02*
X22198753Y-5619698D01*
X22198753Y-5619698D02*
X22179706Y-5629222D01*
X22179706Y-5629222D02*
X22170182Y-5638746D01*
X22170182Y-5638746D02*
X22160658Y-5657793D01*
X22160658Y-5657793D02*
X22160658Y-5695888D01*
X22160658Y-5695888D02*
X22170182Y-5714936D01*
X22170182Y-5714936D02*
X22179706Y-5724460D01*
X22179706Y-5724460D02*
X22198753Y-5733984D01*
X22198753Y-5733984D02*
X22236849Y-5733984D01*
X22236849Y-5733984D02*
X22255896Y-5724460D01*
X22255896Y-5724460D02*
X22265420Y-5714936D01*
X22265420Y-5714936D02*
X22274944Y-5695888D01*
X22274944Y-5695888D02*
X22274944Y-5657793D01*
X22274944Y-5657793D02*
X22265420Y-5638746D01*
X22265420Y-5638746D02*
X22255896Y-5629222D01*
X22255896Y-5629222D02*
X22236849Y-5619698D01*
X22351134Y-5533984D02*
X22351134Y-5572079D01*
X22427325Y-5533984D02*
X22427325Y-5572079D01*
X22722563Y-5810174D02*
X22713039Y-5800650D01*
X22713039Y-5800650D02*
X22693991Y-5772079D01*
X22693991Y-5772079D02*
X22684468Y-5753031D01*
X22684468Y-5753031D02*
X22674944Y-5724460D01*
X22674944Y-5724460D02*
X22665420Y-5676841D01*
X22665420Y-5676841D02*
X22665420Y-5638746D01*
X22665420Y-5638746D02*
X22674944Y-5591127D01*
X22674944Y-5591127D02*
X22684468Y-5562555D01*
X22684468Y-5562555D02*
X22693991Y-5543508D01*
X22693991Y-5543508D02*
X22713039Y-5514936D01*
X22713039Y-5514936D02*
X22722563Y-5505412D01*
X22789229Y-5553031D02*
X22798753Y-5543508D01*
X22798753Y-5543508D02*
X22817801Y-5533984D01*
X22817801Y-5533984D02*
X22865420Y-5533984D01*
X22865420Y-5533984D02*
X22884468Y-5543508D01*
X22884468Y-5543508D02*
X22893991Y-5553031D01*
X22893991Y-5553031D02*
X22903515Y-5572079D01*
X22903515Y-5572079D02*
X22903515Y-5591127D01*
X22903515Y-5591127D02*
X22893991Y-5619698D01*
X22893991Y-5619698D02*
X22779706Y-5733984D01*
X22779706Y-5733984D02*
X22903515Y-5733984D01*
X23141610Y-5733984D02*
X23141610Y-5533984D01*
X23227325Y-5733984D02*
X23227325Y-5629222D01*
X23227325Y-5629222D02*
X23217801Y-5610174D01*
X23217801Y-5610174D02*
X23198753Y-5600650D01*
X23198753Y-5600650D02*
X23170182Y-5600650D01*
X23170182Y-5600650D02*
X23151134Y-5610174D01*
X23151134Y-5610174D02*
X23141610Y-5619698D01*
X23351134Y-5733984D02*
X23332087Y-5724460D01*
X23332087Y-5724460D02*
X23322563Y-5714936D01*
X23322563Y-5714936D02*
X23313039Y-5695888D01*
X23313039Y-5695888D02*
X23313039Y-5638746D01*
X23313039Y-5638746D02*
X23322563Y-5619698D01*
X23322563Y-5619698D02*
X23332087Y-5610174D01*
X23332087Y-5610174D02*
X23351134Y-5600650D01*
X23351134Y-5600650D02*
X23379706Y-5600650D01*
X23379706Y-5600650D02*
X23398753Y-5610174D01*
X23398753Y-5610174D02*
X23408277Y-5619698D01*
X23408277Y-5619698D02*
X23417801Y-5638746D01*
X23417801Y-5638746D02*
X23417801Y-5695888D01*
X23417801Y-5695888D02*
X23408277Y-5714936D01*
X23408277Y-5714936D02*
X23398753Y-5724460D01*
X23398753Y-5724460D02*
X23379706Y-5733984D01*
X23379706Y-5733984D02*
X23351134Y-5733984D01*
X23532087Y-5733984D02*
X23513039Y-5724460D01*
X23513039Y-5724460D02*
X23503515Y-5705412D01*
X23503515Y-5705412D02*
X23503515Y-5533984D01*
X23684468Y-5724460D02*
X23665420Y-5733984D01*
X23665420Y-5733984D02*
X23627325Y-5733984D01*
X23627325Y-5733984D02*
X23608277Y-5724460D01*
X23608277Y-5724460D02*
X23598753Y-5705412D01*
X23598753Y-5705412D02*
X23598753Y-5629222D01*
X23598753Y-5629222D02*
X23608277Y-5610174D01*
X23608277Y-5610174D02*
X23627325Y-5600650D01*
X23627325Y-5600650D02*
X23665420Y-5600650D01*
X23665420Y-5600650D02*
X23684468Y-5610174D01*
X23684468Y-5610174D02*
X23693991Y-5629222D01*
X23693991Y-5629222D02*
X23693991Y-5648269D01*
X23693991Y-5648269D02*
X23598753Y-5667317D01*
X23770182Y-5724460D02*
X23789230Y-5733984D01*
X23789230Y-5733984D02*
X23827325Y-5733984D01*
X23827325Y-5733984D02*
X23846372Y-5724460D01*
X23846372Y-5724460D02*
X23855896Y-5705412D01*
X23855896Y-5705412D02*
X23855896Y-5695888D01*
X23855896Y-5695888D02*
X23846372Y-5676841D01*
X23846372Y-5676841D02*
X23827325Y-5667317D01*
X23827325Y-5667317D02*
X23798753Y-5667317D01*
X23798753Y-5667317D02*
X23779706Y-5657793D01*
X23779706Y-5657793D02*
X23770182Y-5638746D01*
X23770182Y-5638746D02*
X23770182Y-5629222D01*
X23770182Y-5629222D02*
X23779706Y-5610174D01*
X23779706Y-5610174D02*
X23798753Y-5600650D01*
X23798753Y-5600650D02*
X23827325Y-5600650D01*
X23827325Y-5600650D02*
X23846372Y-5610174D01*
X23922563Y-5810174D02*
X23932087Y-5800650D01*
X23932087Y-5800650D02*
X23951134Y-5772079D01*
X23951134Y-5772079D02*
X23960658Y-5753031D01*
X23960658Y-5753031D02*
X23970182Y-5724460D01*
X23970182Y-5724460D02*
X23979706Y-5676841D01*
X23979706Y-5676841D02*
X23979706Y-5638746D01*
X23979706Y-5638746D02*
X23970182Y-5591127D01*
X23970182Y-5591127D02*
X23960658Y-5562555D01*
X23960658Y-5562555D02*
X23951134Y-5543508D01*
X23951134Y-5543508D02*
X23932087Y-5514936D01*
X23932087Y-5514936D02*
X23922563Y-5505412D01*
D12*
X19147500Y-5906500D02*
G75*
G02*
X19097500Y-5906500I-25000J0D01*
G01*
X19097500Y-5906500D02*
G75*
G02*
X19147500Y-5906500I25000J0D01*
G01*
D11*
X19446372Y-5797984D02*
X19465420Y-5797984D01*
X19465420Y-5797984D02*
X19484467Y-5807508D01*
X19484467Y-5807508D02*
X19493991Y-5817031D01*
X19493991Y-5817031D02*
X19503515Y-5836079D01*
X19503515Y-5836079D02*
X19513039Y-5874174D01*
X19513039Y-5874174D02*
X19513039Y-5921793D01*
X19513039Y-5921793D02*
X19503515Y-5959888D01*
X19503515Y-5959888D02*
X19493991Y-5978936D01*
X19493991Y-5978936D02*
X19484467Y-5988460D01*
X19484467Y-5988460D02*
X19465420Y-5997984D01*
X19465420Y-5997984D02*
X19446372Y-5997984D01*
X19446372Y-5997984D02*
X19427324Y-5988460D01*
X19427324Y-5988460D02*
X19417801Y-5978936D01*
X19417801Y-5978936D02*
X19408277Y-5959888D01*
X19408277Y-5959888D02*
X19398753Y-5921793D01*
X19398753Y-5921793D02*
X19398753Y-5874174D01*
X19398753Y-5874174D02*
X19408277Y-5836079D01*
X19408277Y-5836079D02*
X19417801Y-5817031D01*
X19417801Y-5817031D02*
X19427324Y-5807508D01*
X19427324Y-5807508D02*
X19446372Y-5797984D01*
X19598753Y-5978936D02*
X19608277Y-5988460D01*
X19608277Y-5988460D02*
X19598753Y-5997984D01*
X19598753Y-5997984D02*
X19589229Y-5988460D01*
X19589229Y-5988460D02*
X19598753Y-5978936D01*
X19598753Y-5978936D02*
X19598753Y-5997984D01*
X19789229Y-5797984D02*
X19693991Y-5797984D01*
X19693991Y-5797984D02*
X19684467Y-5893222D01*
X19684467Y-5893222D02*
X19693991Y-5883698D01*
X19693991Y-5883698D02*
X19713039Y-5874174D01*
X19713039Y-5874174D02*
X19760658Y-5874174D01*
X19760658Y-5874174D02*
X19779705Y-5883698D01*
X19779705Y-5883698D02*
X19789229Y-5893222D01*
X19789229Y-5893222D02*
X19798753Y-5912269D01*
X19798753Y-5912269D02*
X19798753Y-5959888D01*
X19798753Y-5959888D02*
X19789229Y-5978936D01*
X19789229Y-5978936D02*
X19779705Y-5988460D01*
X19779705Y-5988460D02*
X19760658Y-5997984D01*
X19760658Y-5997984D02*
X19713039Y-5997984D01*
X19713039Y-5997984D02*
X19693991Y-5988460D01*
X19693991Y-5988460D02*
X19684467Y-5978936D01*
X19922563Y-5797984D02*
X19941610Y-5797984D01*
X19941610Y-5797984D02*
X19960658Y-5807508D01*
X19960658Y-5807508D02*
X19970182Y-5817031D01*
X19970182Y-5817031D02*
X19979705Y-5836079D01*
X19979705Y-5836079D02*
X19989229Y-5874174D01*
X19989229Y-5874174D02*
X19989229Y-5921793D01*
X19989229Y-5921793D02*
X19979705Y-5959888D01*
X19979705Y-5959888D02*
X19970182Y-5978936D01*
X19970182Y-5978936D02*
X19960658Y-5988460D01*
X19960658Y-5988460D02*
X19941610Y-5997984D01*
X19941610Y-5997984D02*
X19922563Y-5997984D01*
X19922563Y-5997984D02*
X19903515Y-5988460D01*
X19903515Y-5988460D02*
X19893991Y-5978936D01*
X19893991Y-5978936D02*
X19884467Y-5959888D01*
X19884467Y-5959888D02*
X19874944Y-5921793D01*
X19874944Y-5921793D02*
X19874944Y-5874174D01*
X19874944Y-5874174D02*
X19884467Y-5836079D01*
X19884467Y-5836079D02*
X19893991Y-5817031D01*
X19893991Y-5817031D02*
X19903515Y-5807508D01*
X19903515Y-5807508D02*
X19922563Y-5797984D01*
X20113039Y-5797984D02*
X20132086Y-5797984D01*
X20132086Y-5797984D02*
X20151134Y-5807508D01*
X20151134Y-5807508D02*
X20160658Y-5817031D01*
X20160658Y-5817031D02*
X20170182Y-5836079D01*
X20170182Y-5836079D02*
X20179705Y-5874174D01*
X20179705Y-5874174D02*
X20179705Y-5921793D01*
X20179705Y-5921793D02*
X20170182Y-5959888D01*
X20170182Y-5959888D02*
X20160658Y-5978936D01*
X20160658Y-5978936D02*
X20151134Y-5988460D01*
X20151134Y-5988460D02*
X20132086Y-5997984D01*
X20132086Y-5997984D02*
X20113039Y-5997984D01*
X20113039Y-5997984D02*
X20093991Y-5988460D01*
X20093991Y-5988460D02*
X20084467Y-5978936D01*
X20084467Y-5978936D02*
X20074944Y-5959888D01*
X20074944Y-5959888D02*
X20065420Y-5921793D01*
X20065420Y-5921793D02*
X20065420Y-5874174D01*
X20065420Y-5874174D02*
X20074944Y-5836079D01*
X20074944Y-5836079D02*
X20084467Y-5817031D01*
X20084467Y-5817031D02*
X20093991Y-5807508D01*
X20093991Y-5807508D02*
X20113039Y-5797984D01*
X20265420Y-5997984D02*
X20265420Y-5864650D01*
X20265420Y-5883698D02*
X20274944Y-5874174D01*
X20274944Y-5874174D02*
X20293991Y-5864650D01*
X20293991Y-5864650D02*
X20322563Y-5864650D01*
X20322563Y-5864650D02*
X20341610Y-5874174D01*
X20341610Y-5874174D02*
X20351134Y-5893222D01*
X20351134Y-5893222D02*
X20351134Y-5997984D01*
X20351134Y-5893222D02*
X20360658Y-5874174D01*
X20360658Y-5874174D02*
X20379705Y-5864650D01*
X20379705Y-5864650D02*
X20408277Y-5864650D01*
X20408277Y-5864650D02*
X20427325Y-5874174D01*
X20427325Y-5874174D02*
X20436848Y-5893222D01*
X20436848Y-5893222D02*
X20436848Y-5997984D01*
X20532086Y-5997984D02*
X20532086Y-5864650D01*
X20532086Y-5883698D02*
X20541610Y-5874174D01*
X20541610Y-5874174D02*
X20560658Y-5864650D01*
X20560658Y-5864650D02*
X20589229Y-5864650D01*
X20589229Y-5864650D02*
X20608277Y-5874174D01*
X20608277Y-5874174D02*
X20617801Y-5893222D01*
X20617801Y-5893222D02*
X20617801Y-5997984D01*
X20617801Y-5893222D02*
X20627325Y-5874174D01*
X20627325Y-5874174D02*
X20646372Y-5864650D01*
X20646372Y-5864650D02*
X20674944Y-5864650D01*
X20674944Y-5864650D02*
X20693991Y-5874174D01*
X20693991Y-5874174D02*
X20703515Y-5893222D01*
X20703515Y-5893222D02*
X20703515Y-5997984D01*
X21093991Y-5788460D02*
X20922563Y-6045603D01*
X21351134Y-5797984D02*
X21370182Y-5797984D01*
X21370182Y-5797984D02*
X21389229Y-5807508D01*
X21389229Y-5807508D02*
X21398753Y-5817031D01*
X21398753Y-5817031D02*
X21408277Y-5836079D01*
X21408277Y-5836079D02*
X21417801Y-5874174D01*
X21417801Y-5874174D02*
X21417801Y-5921793D01*
X21417801Y-5921793D02*
X21408277Y-5959888D01*
X21408277Y-5959888D02*
X21398753Y-5978936D01*
X21398753Y-5978936D02*
X21389229Y-5988460D01*
X21389229Y-5988460D02*
X21370182Y-5997984D01*
X21370182Y-5997984D02*
X21351134Y-5997984D01*
X21351134Y-5997984D02*
X21332087Y-5988460D01*
X21332087Y-5988460D02*
X21322563Y-5978936D01*
X21322563Y-5978936D02*
X21313039Y-5959888D01*
X21313039Y-5959888D02*
X21303515Y-5921793D01*
X21303515Y-5921793D02*
X21303515Y-5874174D01*
X21303515Y-5874174D02*
X21313039Y-5836079D01*
X21313039Y-5836079D02*
X21322563Y-5817031D01*
X21322563Y-5817031D02*
X21332087Y-5807508D01*
X21332087Y-5807508D02*
X21351134Y-5797984D01*
X21503515Y-5978936D02*
X21513039Y-5988460D01*
X21513039Y-5988460D02*
X21503515Y-5997984D01*
X21503515Y-5997984D02*
X21493991Y-5988460D01*
X21493991Y-5988460D02*
X21503515Y-5978936D01*
X21503515Y-5978936D02*
X21503515Y-5997984D01*
X21636848Y-5797984D02*
X21655896Y-5797984D01*
X21655896Y-5797984D02*
X21674944Y-5807508D01*
X21674944Y-5807508D02*
X21684468Y-5817031D01*
X21684468Y-5817031D02*
X21693991Y-5836079D01*
X21693991Y-5836079D02*
X21703515Y-5874174D01*
X21703515Y-5874174D02*
X21703515Y-5921793D01*
X21703515Y-5921793D02*
X21693991Y-5959888D01*
X21693991Y-5959888D02*
X21684468Y-5978936D01*
X21684468Y-5978936D02*
X21674944Y-5988460D01*
X21674944Y-5988460D02*
X21655896Y-5997984D01*
X21655896Y-5997984D02*
X21636848Y-5997984D01*
X21636848Y-5997984D02*
X21617801Y-5988460D01*
X21617801Y-5988460D02*
X21608277Y-5978936D01*
X21608277Y-5978936D02*
X21598753Y-5959888D01*
X21598753Y-5959888D02*
X21589229Y-5921793D01*
X21589229Y-5921793D02*
X21589229Y-5874174D01*
X21589229Y-5874174D02*
X21598753Y-5836079D01*
X21598753Y-5836079D02*
X21608277Y-5817031D01*
X21608277Y-5817031D02*
X21617801Y-5807508D01*
X21617801Y-5807508D02*
X21636848Y-5797984D01*
X21893991Y-5997984D02*
X21779706Y-5997984D01*
X21836848Y-5997984D02*
X21836848Y-5797984D01*
X21836848Y-5797984D02*
X21817801Y-5826555D01*
X21817801Y-5826555D02*
X21798753Y-5845603D01*
X21798753Y-5845603D02*
X21779706Y-5855127D01*
X21989229Y-5997984D02*
X22027325Y-5997984D01*
X22027325Y-5997984D02*
X22046372Y-5988460D01*
X22046372Y-5988460D02*
X22055896Y-5978936D01*
X22055896Y-5978936D02*
X22074944Y-5950365D01*
X22074944Y-5950365D02*
X22084468Y-5912269D01*
X22084468Y-5912269D02*
X22084468Y-5836079D01*
X22084468Y-5836079D02*
X22074944Y-5817031D01*
X22074944Y-5817031D02*
X22065420Y-5807508D01*
X22065420Y-5807508D02*
X22046372Y-5797984D01*
X22046372Y-5797984D02*
X22008277Y-5797984D01*
X22008277Y-5797984D02*
X21989229Y-5807508D01*
X21989229Y-5807508D02*
X21979706Y-5817031D01*
X21979706Y-5817031D02*
X21970182Y-5836079D01*
X21970182Y-5836079D02*
X21970182Y-5883698D01*
X21970182Y-5883698D02*
X21979706Y-5902746D01*
X21979706Y-5902746D02*
X21989229Y-5912269D01*
X21989229Y-5912269D02*
X22008277Y-5921793D01*
X22008277Y-5921793D02*
X22046372Y-5921793D01*
X22046372Y-5921793D02*
X22065420Y-5912269D01*
X22065420Y-5912269D02*
X22074944Y-5902746D01*
X22074944Y-5902746D02*
X22084468Y-5883698D01*
X22151134Y-5797984D02*
X22284468Y-5797984D01*
X22284468Y-5797984D02*
X22198753Y-5997984D01*
X22351134Y-5797984D02*
X22351134Y-5836079D01*
X22427325Y-5797984D02*
X22427325Y-5836079D01*
X22722563Y-6074174D02*
X22713039Y-6064650D01*
X22713039Y-6064650D02*
X22693991Y-6036079D01*
X22693991Y-6036079D02*
X22684468Y-6017031D01*
X22684468Y-6017031D02*
X22674944Y-5988460D01*
X22674944Y-5988460D02*
X22665420Y-5940841D01*
X22665420Y-5940841D02*
X22665420Y-5902746D01*
X22665420Y-5902746D02*
X22674944Y-5855127D01*
X22674944Y-5855127D02*
X22684468Y-5826555D01*
X22684468Y-5826555D02*
X22693991Y-5807508D01*
X22693991Y-5807508D02*
X22713039Y-5778936D01*
X22713039Y-5778936D02*
X22722563Y-5769412D01*
X22789229Y-5817031D02*
X22798753Y-5807508D01*
X22798753Y-5807508D02*
X22817801Y-5797984D01*
X22817801Y-5797984D02*
X22865420Y-5797984D01*
X22865420Y-5797984D02*
X22884468Y-5807508D01*
X22884468Y-5807508D02*
X22893991Y-5817031D01*
X22893991Y-5817031D02*
X22903515Y-5836079D01*
X22903515Y-5836079D02*
X22903515Y-5855127D01*
X22903515Y-5855127D02*
X22893991Y-5883698D01*
X22893991Y-5883698D02*
X22779706Y-5997984D01*
X22779706Y-5997984D02*
X22903515Y-5997984D01*
X22998753Y-5997984D02*
X23036848Y-5997984D01*
X23036848Y-5997984D02*
X23055896Y-5988460D01*
X23055896Y-5988460D02*
X23065420Y-5978936D01*
X23065420Y-5978936D02*
X23084468Y-5950365D01*
X23084468Y-5950365D02*
X23093991Y-5912269D01*
X23093991Y-5912269D02*
X23093991Y-5836079D01*
X23093991Y-5836079D02*
X23084468Y-5817031D01*
X23084468Y-5817031D02*
X23074944Y-5807508D01*
X23074944Y-5807508D02*
X23055896Y-5797984D01*
X23055896Y-5797984D02*
X23017801Y-5797984D01*
X23017801Y-5797984D02*
X22998753Y-5807508D01*
X22998753Y-5807508D02*
X22989229Y-5817031D01*
X22989229Y-5817031D02*
X22979706Y-5836079D01*
X22979706Y-5836079D02*
X22979706Y-5883698D01*
X22979706Y-5883698D02*
X22989229Y-5902746D01*
X22989229Y-5902746D02*
X22998753Y-5912269D01*
X22998753Y-5912269D02*
X23017801Y-5921793D01*
X23017801Y-5921793D02*
X23055896Y-5921793D01*
X23055896Y-5921793D02*
X23074944Y-5912269D01*
X23074944Y-5912269D02*
X23084468Y-5902746D01*
X23084468Y-5902746D02*
X23093991Y-5883698D01*
X23332087Y-5997984D02*
X23332087Y-5797984D01*
X23417801Y-5997984D02*
X23417801Y-5893222D01*
X23417801Y-5893222D02*
X23408277Y-5874174D01*
X23408277Y-5874174D02*
X23389230Y-5864650D01*
X23389230Y-5864650D02*
X23360658Y-5864650D01*
X23360658Y-5864650D02*
X23341610Y-5874174D01*
X23341610Y-5874174D02*
X23332087Y-5883698D01*
X23541610Y-5997984D02*
X23522563Y-5988460D01*
X23522563Y-5988460D02*
X23513039Y-5978936D01*
X23513039Y-5978936D02*
X23503515Y-5959888D01*
X23503515Y-5959888D02*
X23503515Y-5902746D01*
X23503515Y-5902746D02*
X23513039Y-5883698D01*
X23513039Y-5883698D02*
X23522563Y-5874174D01*
X23522563Y-5874174D02*
X23541610Y-5864650D01*
X23541610Y-5864650D02*
X23570182Y-5864650D01*
X23570182Y-5864650D02*
X23589230Y-5874174D01*
X23589230Y-5874174D02*
X23598753Y-5883698D01*
X23598753Y-5883698D02*
X23608277Y-5902746D01*
X23608277Y-5902746D02*
X23608277Y-5959888D01*
X23608277Y-5959888D02*
X23598753Y-5978936D01*
X23598753Y-5978936D02*
X23589230Y-5988460D01*
X23589230Y-5988460D02*
X23570182Y-5997984D01*
X23570182Y-5997984D02*
X23541610Y-5997984D01*
X23722563Y-5997984D02*
X23703515Y-5988460D01*
X23703515Y-5988460D02*
X23693991Y-5969412D01*
X23693991Y-5969412D02*
X23693991Y-5797984D01*
X23874944Y-5988460D02*
X23855896Y-5997984D01*
X23855896Y-5997984D02*
X23817801Y-5997984D01*
X23817801Y-5997984D02*
X23798753Y-5988460D01*
X23798753Y-5988460D02*
X23789230Y-5969412D01*
X23789230Y-5969412D02*
X23789230Y-5893222D01*
X23789230Y-5893222D02*
X23798753Y-5874174D01*
X23798753Y-5874174D02*
X23817801Y-5864650D01*
X23817801Y-5864650D02*
X23855896Y-5864650D01*
X23855896Y-5864650D02*
X23874944Y-5874174D01*
X23874944Y-5874174D02*
X23884468Y-5893222D01*
X23884468Y-5893222D02*
X23884468Y-5912269D01*
X23884468Y-5912269D02*
X23789230Y-5931317D01*
X23960658Y-5988460D02*
X23979706Y-5997984D01*
X23979706Y-5997984D02*
X24017801Y-5997984D01*
X24017801Y-5997984D02*
X24036849Y-5988460D01*
X24036849Y-5988460D02*
X24046372Y-5969412D01*
X24046372Y-5969412D02*
X24046372Y-5959888D01*
X24046372Y-5959888D02*
X24036849Y-5940841D01*
X24036849Y-5940841D02*
X24017801Y-5931317D01*
X24017801Y-5931317D02*
X23989230Y-5931317D01*
X23989230Y-5931317D02*
X23970182Y-5921793D01*
X23970182Y-5921793D02*
X23960658Y-5902746D01*
X23960658Y-5902746D02*
X23960658Y-5893222D01*
X23960658Y-5893222D02*
X23970182Y-5874174D01*
X23970182Y-5874174D02*
X23989230Y-5864650D01*
X23989230Y-5864650D02*
X24017801Y-5864650D01*
X24017801Y-5864650D02*
X24036849Y-5874174D01*
X24113039Y-6074174D02*
X24122563Y-6064650D01*
X24122563Y-6064650D02*
X24141611Y-6036079D01*
X24141611Y-6036079D02*
X24151134Y-6017031D01*
X24151134Y-6017031D02*
X24160658Y-5988460D01*
X24160658Y-5988460D02*
X24170182Y-5940841D01*
X24170182Y-5940841D02*
X24170182Y-5902746D01*
X24170182Y-5902746D02*
X24160658Y-5855127D01*
X24160658Y-5855127D02*
X24151134Y-5826555D01*
X24151134Y-5826555D02*
X24141611Y-5807508D01*
X24141611Y-5807508D02*
X24122563Y-5778936D01*
X24122563Y-5778936D02*
X24113039Y-5769412D01*
D12*
X19110000Y-6133000D02*
X19110000Y-6208000D01*
X19072500Y-6170500D02*
X19147500Y-6170500D01*
D11*
X19446372Y-6061984D02*
X19465420Y-6061984D01*
X19465420Y-6061984D02*
X19484467Y-6071508D01*
X19484467Y-6071508D02*
X19493991Y-6081031D01*
X19493991Y-6081031D02*
X19503515Y-6100079D01*
X19503515Y-6100079D02*
X19513039Y-6138174D01*
X19513039Y-6138174D02*
X19513039Y-6185793D01*
X19513039Y-6185793D02*
X19503515Y-6223888D01*
X19503515Y-6223888D02*
X19493991Y-6242936D01*
X19493991Y-6242936D02*
X19484467Y-6252460D01*
X19484467Y-6252460D02*
X19465420Y-6261984D01*
X19465420Y-6261984D02*
X19446372Y-6261984D01*
X19446372Y-6261984D02*
X19427324Y-6252460D01*
X19427324Y-6252460D02*
X19417801Y-6242936D01*
X19417801Y-6242936D02*
X19408277Y-6223888D01*
X19408277Y-6223888D02*
X19398753Y-6185793D01*
X19398753Y-6185793D02*
X19398753Y-6138174D01*
X19398753Y-6138174D02*
X19408277Y-6100079D01*
X19408277Y-6100079D02*
X19417801Y-6081031D01*
X19417801Y-6081031D02*
X19427324Y-6071508D01*
X19427324Y-6071508D02*
X19446372Y-6061984D01*
X19598753Y-6242936D02*
X19608277Y-6252460D01*
X19608277Y-6252460D02*
X19598753Y-6261984D01*
X19598753Y-6261984D02*
X19589229Y-6252460D01*
X19589229Y-6252460D02*
X19598753Y-6242936D01*
X19598753Y-6242936D02*
X19598753Y-6261984D01*
X19674944Y-6061984D02*
X19808277Y-6061984D01*
X19808277Y-6061984D02*
X19722563Y-6261984D01*
X19979705Y-6061984D02*
X19884467Y-6061984D01*
X19884467Y-6061984D02*
X19874944Y-6157222D01*
X19874944Y-6157222D02*
X19884467Y-6147698D01*
X19884467Y-6147698D02*
X19903515Y-6138174D01*
X19903515Y-6138174D02*
X19951134Y-6138174D01*
X19951134Y-6138174D02*
X19970182Y-6147698D01*
X19970182Y-6147698D02*
X19979705Y-6157222D01*
X19979705Y-6157222D02*
X19989229Y-6176269D01*
X19989229Y-6176269D02*
X19989229Y-6223888D01*
X19989229Y-6223888D02*
X19979705Y-6242936D01*
X19979705Y-6242936D02*
X19970182Y-6252460D01*
X19970182Y-6252460D02*
X19951134Y-6261984D01*
X19951134Y-6261984D02*
X19903515Y-6261984D01*
X19903515Y-6261984D02*
X19884467Y-6252460D01*
X19884467Y-6252460D02*
X19874944Y-6242936D01*
X20113039Y-6061984D02*
X20132086Y-6061984D01*
X20132086Y-6061984D02*
X20151134Y-6071508D01*
X20151134Y-6071508D02*
X20160658Y-6081031D01*
X20160658Y-6081031D02*
X20170182Y-6100079D01*
X20170182Y-6100079D02*
X20179705Y-6138174D01*
X20179705Y-6138174D02*
X20179705Y-6185793D01*
X20179705Y-6185793D02*
X20170182Y-6223888D01*
X20170182Y-6223888D02*
X20160658Y-6242936D01*
X20160658Y-6242936D02*
X20151134Y-6252460D01*
X20151134Y-6252460D02*
X20132086Y-6261984D01*
X20132086Y-6261984D02*
X20113039Y-6261984D01*
X20113039Y-6261984D02*
X20093991Y-6252460D01*
X20093991Y-6252460D02*
X20084467Y-6242936D01*
X20084467Y-6242936D02*
X20074944Y-6223888D01*
X20074944Y-6223888D02*
X20065420Y-6185793D01*
X20065420Y-6185793D02*
X20065420Y-6138174D01*
X20065420Y-6138174D02*
X20074944Y-6100079D01*
X20074944Y-6100079D02*
X20084467Y-6081031D01*
X20084467Y-6081031D02*
X20093991Y-6071508D01*
X20093991Y-6071508D02*
X20113039Y-6061984D01*
X20265420Y-6261984D02*
X20265420Y-6128650D01*
X20265420Y-6147698D02*
X20274944Y-6138174D01*
X20274944Y-6138174D02*
X20293991Y-6128650D01*
X20293991Y-6128650D02*
X20322563Y-6128650D01*
X20322563Y-6128650D02*
X20341610Y-6138174D01*
X20341610Y-6138174D02*
X20351134Y-6157222D01*
X20351134Y-6157222D02*
X20351134Y-6261984D01*
X20351134Y-6157222D02*
X20360658Y-6138174D01*
X20360658Y-6138174D02*
X20379705Y-6128650D01*
X20379705Y-6128650D02*
X20408277Y-6128650D01*
X20408277Y-6128650D02*
X20427325Y-6138174D01*
X20427325Y-6138174D02*
X20436848Y-6157222D01*
X20436848Y-6157222D02*
X20436848Y-6261984D01*
X20532086Y-6261984D02*
X20532086Y-6128650D01*
X20532086Y-6147698D02*
X20541610Y-6138174D01*
X20541610Y-6138174D02*
X20560658Y-6128650D01*
X20560658Y-6128650D02*
X20589229Y-6128650D01*
X20589229Y-6128650D02*
X20608277Y-6138174D01*
X20608277Y-6138174D02*
X20617801Y-6157222D01*
X20617801Y-6157222D02*
X20617801Y-6261984D01*
X20617801Y-6157222D02*
X20627325Y-6138174D01*
X20627325Y-6138174D02*
X20646372Y-6128650D01*
X20646372Y-6128650D02*
X20674944Y-6128650D01*
X20674944Y-6128650D02*
X20693991Y-6138174D01*
X20693991Y-6138174D02*
X20703515Y-6157222D01*
X20703515Y-6157222D02*
X20703515Y-6261984D01*
X21093991Y-6052460D02*
X20922563Y-6309603D01*
X21351134Y-6061984D02*
X21370182Y-6061984D01*
X21370182Y-6061984D02*
X21389229Y-6071508D01*
X21389229Y-6071508D02*
X21398753Y-6081031D01*
X21398753Y-6081031D02*
X21408277Y-6100079D01*
X21408277Y-6100079D02*
X21417801Y-6138174D01*
X21417801Y-6138174D02*
X21417801Y-6185793D01*
X21417801Y-6185793D02*
X21408277Y-6223888D01*
X21408277Y-6223888D02*
X21398753Y-6242936D01*
X21398753Y-6242936D02*
X21389229Y-6252460D01*
X21389229Y-6252460D02*
X21370182Y-6261984D01*
X21370182Y-6261984D02*
X21351134Y-6261984D01*
X21351134Y-6261984D02*
X21332087Y-6252460D01*
X21332087Y-6252460D02*
X21322563Y-6242936D01*
X21322563Y-6242936D02*
X21313039Y-6223888D01*
X21313039Y-6223888D02*
X21303515Y-6185793D01*
X21303515Y-6185793D02*
X21303515Y-6138174D01*
X21303515Y-6138174D02*
X21313039Y-6100079D01*
X21313039Y-6100079D02*
X21322563Y-6081031D01*
X21322563Y-6081031D02*
X21332087Y-6071508D01*
X21332087Y-6071508D02*
X21351134Y-6061984D01*
X21503515Y-6242936D02*
X21513039Y-6252460D01*
X21513039Y-6252460D02*
X21503515Y-6261984D01*
X21503515Y-6261984D02*
X21493991Y-6252460D01*
X21493991Y-6252460D02*
X21503515Y-6242936D01*
X21503515Y-6242936D02*
X21503515Y-6261984D01*
X21636848Y-6061984D02*
X21655896Y-6061984D01*
X21655896Y-6061984D02*
X21674944Y-6071508D01*
X21674944Y-6071508D02*
X21684468Y-6081031D01*
X21684468Y-6081031D02*
X21693991Y-6100079D01*
X21693991Y-6100079D02*
X21703515Y-6138174D01*
X21703515Y-6138174D02*
X21703515Y-6185793D01*
X21703515Y-6185793D02*
X21693991Y-6223888D01*
X21693991Y-6223888D02*
X21684468Y-6242936D01*
X21684468Y-6242936D02*
X21674944Y-6252460D01*
X21674944Y-6252460D02*
X21655896Y-6261984D01*
X21655896Y-6261984D02*
X21636848Y-6261984D01*
X21636848Y-6261984D02*
X21617801Y-6252460D01*
X21617801Y-6252460D02*
X21608277Y-6242936D01*
X21608277Y-6242936D02*
X21598753Y-6223888D01*
X21598753Y-6223888D02*
X21589229Y-6185793D01*
X21589229Y-6185793D02*
X21589229Y-6138174D01*
X21589229Y-6138174D02*
X21598753Y-6100079D01*
X21598753Y-6100079D02*
X21608277Y-6081031D01*
X21608277Y-6081031D02*
X21617801Y-6071508D01*
X21617801Y-6071508D02*
X21636848Y-6061984D01*
X21779706Y-6081031D02*
X21789229Y-6071508D01*
X21789229Y-6071508D02*
X21808277Y-6061984D01*
X21808277Y-6061984D02*
X21855896Y-6061984D01*
X21855896Y-6061984D02*
X21874944Y-6071508D01*
X21874944Y-6071508D02*
X21884468Y-6081031D01*
X21884468Y-6081031D02*
X21893991Y-6100079D01*
X21893991Y-6100079D02*
X21893991Y-6119127D01*
X21893991Y-6119127D02*
X21884468Y-6147698D01*
X21884468Y-6147698D02*
X21770182Y-6261984D01*
X21770182Y-6261984D02*
X21893991Y-6261984D01*
X21989229Y-6261984D02*
X22027325Y-6261984D01*
X22027325Y-6261984D02*
X22046372Y-6252460D01*
X22046372Y-6252460D02*
X22055896Y-6242936D01*
X22055896Y-6242936D02*
X22074944Y-6214365D01*
X22074944Y-6214365D02*
X22084468Y-6176269D01*
X22084468Y-6176269D02*
X22084468Y-6100079D01*
X22084468Y-6100079D02*
X22074944Y-6081031D01*
X22074944Y-6081031D02*
X22065420Y-6071508D01*
X22065420Y-6071508D02*
X22046372Y-6061984D01*
X22046372Y-6061984D02*
X22008277Y-6061984D01*
X22008277Y-6061984D02*
X21989229Y-6071508D01*
X21989229Y-6071508D02*
X21979706Y-6081031D01*
X21979706Y-6081031D02*
X21970182Y-6100079D01*
X21970182Y-6100079D02*
X21970182Y-6147698D01*
X21970182Y-6147698D02*
X21979706Y-6166746D01*
X21979706Y-6166746D02*
X21989229Y-6176269D01*
X21989229Y-6176269D02*
X22008277Y-6185793D01*
X22008277Y-6185793D02*
X22046372Y-6185793D01*
X22046372Y-6185793D02*
X22065420Y-6176269D01*
X22065420Y-6176269D02*
X22074944Y-6166746D01*
X22074944Y-6166746D02*
X22084468Y-6147698D01*
X22265420Y-6061984D02*
X22170182Y-6061984D01*
X22170182Y-6061984D02*
X22160658Y-6157222D01*
X22160658Y-6157222D02*
X22170182Y-6147698D01*
X22170182Y-6147698D02*
X22189229Y-6138174D01*
X22189229Y-6138174D02*
X22236849Y-6138174D01*
X22236849Y-6138174D02*
X22255896Y-6147698D01*
X22255896Y-6147698D02*
X22265420Y-6157222D01*
X22265420Y-6157222D02*
X22274944Y-6176269D01*
X22274944Y-6176269D02*
X22274944Y-6223888D01*
X22274944Y-6223888D02*
X22265420Y-6242936D01*
X22265420Y-6242936D02*
X22255896Y-6252460D01*
X22255896Y-6252460D02*
X22236849Y-6261984D01*
X22236849Y-6261984D02*
X22189229Y-6261984D01*
X22189229Y-6261984D02*
X22170182Y-6252460D01*
X22170182Y-6252460D02*
X22160658Y-6242936D01*
X22351134Y-6061984D02*
X22351134Y-6100079D01*
X22427325Y-6061984D02*
X22427325Y-6100079D01*
X22722563Y-6338174D02*
X22713039Y-6328650D01*
X22713039Y-6328650D02*
X22693991Y-6300079D01*
X22693991Y-6300079D02*
X22684468Y-6281031D01*
X22684468Y-6281031D02*
X22674944Y-6252460D01*
X22674944Y-6252460D02*
X22665420Y-6204841D01*
X22665420Y-6204841D02*
X22665420Y-6166746D01*
X22665420Y-6166746D02*
X22674944Y-6119127D01*
X22674944Y-6119127D02*
X22684468Y-6090555D01*
X22684468Y-6090555D02*
X22693991Y-6071508D01*
X22693991Y-6071508D02*
X22713039Y-6042936D01*
X22713039Y-6042936D02*
X22722563Y-6033412D01*
X22884468Y-6061984D02*
X22846372Y-6061984D01*
X22846372Y-6061984D02*
X22827325Y-6071508D01*
X22827325Y-6071508D02*
X22817801Y-6081031D01*
X22817801Y-6081031D02*
X22798753Y-6109603D01*
X22798753Y-6109603D02*
X22789229Y-6147698D01*
X22789229Y-6147698D02*
X22789229Y-6223888D01*
X22789229Y-6223888D02*
X22798753Y-6242936D01*
X22798753Y-6242936D02*
X22808277Y-6252460D01*
X22808277Y-6252460D02*
X22827325Y-6261984D01*
X22827325Y-6261984D02*
X22865420Y-6261984D01*
X22865420Y-6261984D02*
X22884468Y-6252460D01*
X22884468Y-6252460D02*
X22893991Y-6242936D01*
X22893991Y-6242936D02*
X22903515Y-6223888D01*
X22903515Y-6223888D02*
X22903515Y-6176269D01*
X22903515Y-6176269D02*
X22893991Y-6157222D01*
X22893991Y-6157222D02*
X22884468Y-6147698D01*
X22884468Y-6147698D02*
X22865420Y-6138174D01*
X22865420Y-6138174D02*
X22827325Y-6138174D01*
X22827325Y-6138174D02*
X22808277Y-6147698D01*
X22808277Y-6147698D02*
X22798753Y-6157222D01*
X22798753Y-6157222D02*
X22789229Y-6176269D01*
X23141610Y-6261984D02*
X23141610Y-6061984D01*
X23227325Y-6261984D02*
X23227325Y-6157222D01*
X23227325Y-6157222D02*
X23217801Y-6138174D01*
X23217801Y-6138174D02*
X23198753Y-6128650D01*
X23198753Y-6128650D02*
X23170182Y-6128650D01*
X23170182Y-6128650D02*
X23151134Y-6138174D01*
X23151134Y-6138174D02*
X23141610Y-6147698D01*
X23351134Y-6261984D02*
X23332087Y-6252460D01*
X23332087Y-6252460D02*
X23322563Y-6242936D01*
X23322563Y-6242936D02*
X23313039Y-6223888D01*
X23313039Y-6223888D02*
X23313039Y-6166746D01*
X23313039Y-6166746D02*
X23322563Y-6147698D01*
X23322563Y-6147698D02*
X23332087Y-6138174D01*
X23332087Y-6138174D02*
X23351134Y-6128650D01*
X23351134Y-6128650D02*
X23379706Y-6128650D01*
X23379706Y-6128650D02*
X23398753Y-6138174D01*
X23398753Y-6138174D02*
X23408277Y-6147698D01*
X23408277Y-6147698D02*
X23417801Y-6166746D01*
X23417801Y-6166746D02*
X23417801Y-6223888D01*
X23417801Y-6223888D02*
X23408277Y-6242936D01*
X23408277Y-6242936D02*
X23398753Y-6252460D01*
X23398753Y-6252460D02*
X23379706Y-6261984D01*
X23379706Y-6261984D02*
X23351134Y-6261984D01*
X23532087Y-6261984D02*
X23513039Y-6252460D01*
X23513039Y-6252460D02*
X23503515Y-6233412D01*
X23503515Y-6233412D02*
X23503515Y-6061984D01*
X23684468Y-6252460D02*
X23665420Y-6261984D01*
X23665420Y-6261984D02*
X23627325Y-6261984D01*
X23627325Y-6261984D02*
X23608277Y-6252460D01*
X23608277Y-6252460D02*
X23598753Y-6233412D01*
X23598753Y-6233412D02*
X23598753Y-6157222D01*
X23598753Y-6157222D02*
X23608277Y-6138174D01*
X23608277Y-6138174D02*
X23627325Y-6128650D01*
X23627325Y-6128650D02*
X23665420Y-6128650D01*
X23665420Y-6128650D02*
X23684468Y-6138174D01*
X23684468Y-6138174D02*
X23693991Y-6157222D01*
X23693991Y-6157222D02*
X23693991Y-6176269D01*
X23693991Y-6176269D02*
X23598753Y-6195317D01*
X23770182Y-6252460D02*
X23789230Y-6261984D01*
X23789230Y-6261984D02*
X23827325Y-6261984D01*
X23827325Y-6261984D02*
X23846372Y-6252460D01*
X23846372Y-6252460D02*
X23855896Y-6233412D01*
X23855896Y-6233412D02*
X23855896Y-6223888D01*
X23855896Y-6223888D02*
X23846372Y-6204841D01*
X23846372Y-6204841D02*
X23827325Y-6195317D01*
X23827325Y-6195317D02*
X23798753Y-6195317D01*
X23798753Y-6195317D02*
X23779706Y-6185793D01*
X23779706Y-6185793D02*
X23770182Y-6166746D01*
X23770182Y-6166746D02*
X23770182Y-6157222D01*
X23770182Y-6157222D02*
X23779706Y-6138174D01*
X23779706Y-6138174D02*
X23798753Y-6128650D01*
X23798753Y-6128650D02*
X23827325Y-6128650D01*
X23827325Y-6128650D02*
X23846372Y-6138174D01*
X23922563Y-6338174D02*
X23932087Y-6328650D01*
X23932087Y-6328650D02*
X23951134Y-6300079D01*
X23951134Y-6300079D02*
X23960658Y-6281031D01*
X23960658Y-6281031D02*
X23970182Y-6252460D01*
X23970182Y-6252460D02*
X23979706Y-6204841D01*
X23979706Y-6204841D02*
X23979706Y-6166746D01*
X23979706Y-6166746D02*
X23970182Y-6119127D01*
X23970182Y-6119127D02*
X23960658Y-6090555D01*
X23960658Y-6090555D02*
X23951134Y-6071508D01*
X23951134Y-6071508D02*
X23932087Y-6042936D01*
X23932087Y-6042936D02*
X23922563Y-6033412D01*
D12*
X19136370Y-6461370D02*
X19136370Y-6407630D01*
X19082630Y-6407630D01*
X19082630Y-6461370D01*
X19136370Y-6461370D01*
D11*
X19446372Y-6325984D02*
X19465420Y-6325984D01*
X19465420Y-6325984D02*
X19484467Y-6335508D01*
X19484467Y-6335508D02*
X19493991Y-6345031D01*
X19493991Y-6345031D02*
X19503515Y-6364079D01*
X19503515Y-6364079D02*
X19513039Y-6402174D01*
X19513039Y-6402174D02*
X19513039Y-6449793D01*
X19513039Y-6449793D02*
X19503515Y-6487888D01*
X19503515Y-6487888D02*
X19493991Y-6506936D01*
X19493991Y-6506936D02*
X19484467Y-6516460D01*
X19484467Y-6516460D02*
X19465420Y-6525984D01*
X19465420Y-6525984D02*
X19446372Y-6525984D01*
X19446372Y-6525984D02*
X19427324Y-6516460D01*
X19427324Y-6516460D02*
X19417801Y-6506936D01*
X19417801Y-6506936D02*
X19408277Y-6487888D01*
X19408277Y-6487888D02*
X19398753Y-6449793D01*
X19398753Y-6449793D02*
X19398753Y-6402174D01*
X19398753Y-6402174D02*
X19408277Y-6364079D01*
X19408277Y-6364079D02*
X19417801Y-6345031D01*
X19417801Y-6345031D02*
X19427324Y-6335508D01*
X19427324Y-6335508D02*
X19446372Y-6325984D01*
X19598753Y-6506936D02*
X19608277Y-6516460D01*
X19608277Y-6516460D02*
X19598753Y-6525984D01*
X19598753Y-6525984D02*
X19589229Y-6516460D01*
X19589229Y-6516460D02*
X19598753Y-6506936D01*
X19598753Y-6506936D02*
X19598753Y-6525984D01*
X19674944Y-6325984D02*
X19808277Y-6325984D01*
X19808277Y-6325984D02*
X19722563Y-6525984D01*
X19970182Y-6325984D02*
X19932086Y-6325984D01*
X19932086Y-6325984D02*
X19913039Y-6335508D01*
X19913039Y-6335508D02*
X19903515Y-6345031D01*
X19903515Y-6345031D02*
X19884467Y-6373603D01*
X19884467Y-6373603D02*
X19874944Y-6411698D01*
X19874944Y-6411698D02*
X19874944Y-6487888D01*
X19874944Y-6487888D02*
X19884467Y-6506936D01*
X19884467Y-6506936D02*
X19893991Y-6516460D01*
X19893991Y-6516460D02*
X19913039Y-6525984D01*
X19913039Y-6525984D02*
X19951134Y-6525984D01*
X19951134Y-6525984D02*
X19970182Y-6516460D01*
X19970182Y-6516460D02*
X19979705Y-6506936D01*
X19979705Y-6506936D02*
X19989229Y-6487888D01*
X19989229Y-6487888D02*
X19989229Y-6440269D01*
X19989229Y-6440269D02*
X19979705Y-6421222D01*
X19979705Y-6421222D02*
X19970182Y-6411698D01*
X19970182Y-6411698D02*
X19951134Y-6402174D01*
X19951134Y-6402174D02*
X19913039Y-6402174D01*
X19913039Y-6402174D02*
X19893991Y-6411698D01*
X19893991Y-6411698D02*
X19884467Y-6421222D01*
X19884467Y-6421222D02*
X19874944Y-6440269D01*
X20113039Y-6325984D02*
X20132086Y-6325984D01*
X20132086Y-6325984D02*
X20151134Y-6335508D01*
X20151134Y-6335508D02*
X20160658Y-6345031D01*
X20160658Y-6345031D02*
X20170182Y-6364079D01*
X20170182Y-6364079D02*
X20179705Y-6402174D01*
X20179705Y-6402174D02*
X20179705Y-6449793D01*
X20179705Y-6449793D02*
X20170182Y-6487888D01*
X20170182Y-6487888D02*
X20160658Y-6506936D01*
X20160658Y-6506936D02*
X20151134Y-6516460D01*
X20151134Y-6516460D02*
X20132086Y-6525984D01*
X20132086Y-6525984D02*
X20113039Y-6525984D01*
X20113039Y-6525984D02*
X20093991Y-6516460D01*
X20093991Y-6516460D02*
X20084467Y-6506936D01*
X20084467Y-6506936D02*
X20074944Y-6487888D01*
X20074944Y-6487888D02*
X20065420Y-6449793D01*
X20065420Y-6449793D02*
X20065420Y-6402174D01*
X20065420Y-6402174D02*
X20074944Y-6364079D01*
X20074944Y-6364079D02*
X20084467Y-6345031D01*
X20084467Y-6345031D02*
X20093991Y-6335508D01*
X20093991Y-6335508D02*
X20113039Y-6325984D01*
X20265420Y-6525984D02*
X20265420Y-6392650D01*
X20265420Y-6411698D02*
X20274944Y-6402174D01*
X20274944Y-6402174D02*
X20293991Y-6392650D01*
X20293991Y-6392650D02*
X20322563Y-6392650D01*
X20322563Y-6392650D02*
X20341610Y-6402174D01*
X20341610Y-6402174D02*
X20351134Y-6421222D01*
X20351134Y-6421222D02*
X20351134Y-6525984D01*
X20351134Y-6421222D02*
X20360658Y-6402174D01*
X20360658Y-6402174D02*
X20379705Y-6392650D01*
X20379705Y-6392650D02*
X20408277Y-6392650D01*
X20408277Y-6392650D02*
X20427325Y-6402174D01*
X20427325Y-6402174D02*
X20436848Y-6421222D01*
X20436848Y-6421222D02*
X20436848Y-6525984D01*
X20532086Y-6525984D02*
X20532086Y-6392650D01*
X20532086Y-6411698D02*
X20541610Y-6402174D01*
X20541610Y-6402174D02*
X20560658Y-6392650D01*
X20560658Y-6392650D02*
X20589229Y-6392650D01*
X20589229Y-6392650D02*
X20608277Y-6402174D01*
X20608277Y-6402174D02*
X20617801Y-6421222D01*
X20617801Y-6421222D02*
X20617801Y-6525984D01*
X20617801Y-6421222D02*
X20627325Y-6402174D01*
X20627325Y-6402174D02*
X20646372Y-6392650D01*
X20646372Y-6392650D02*
X20674944Y-6392650D01*
X20674944Y-6392650D02*
X20693991Y-6402174D01*
X20693991Y-6402174D02*
X20703515Y-6421222D01*
X20703515Y-6421222D02*
X20703515Y-6525984D01*
X21093991Y-6316460D02*
X20922563Y-6573603D01*
X21351134Y-6325984D02*
X21370182Y-6325984D01*
X21370182Y-6325984D02*
X21389229Y-6335508D01*
X21389229Y-6335508D02*
X21398753Y-6345031D01*
X21398753Y-6345031D02*
X21408277Y-6364079D01*
X21408277Y-6364079D02*
X21417801Y-6402174D01*
X21417801Y-6402174D02*
X21417801Y-6449793D01*
X21417801Y-6449793D02*
X21408277Y-6487888D01*
X21408277Y-6487888D02*
X21398753Y-6506936D01*
X21398753Y-6506936D02*
X21389229Y-6516460D01*
X21389229Y-6516460D02*
X21370182Y-6525984D01*
X21370182Y-6525984D02*
X21351134Y-6525984D01*
X21351134Y-6525984D02*
X21332087Y-6516460D01*
X21332087Y-6516460D02*
X21322563Y-6506936D01*
X21322563Y-6506936D02*
X21313039Y-6487888D01*
X21313039Y-6487888D02*
X21303515Y-6449793D01*
X21303515Y-6449793D02*
X21303515Y-6402174D01*
X21303515Y-6402174D02*
X21313039Y-6364079D01*
X21313039Y-6364079D02*
X21322563Y-6345031D01*
X21322563Y-6345031D02*
X21332087Y-6335508D01*
X21332087Y-6335508D02*
X21351134Y-6325984D01*
X21503515Y-6506936D02*
X21513039Y-6516460D01*
X21513039Y-6516460D02*
X21503515Y-6525984D01*
X21503515Y-6525984D02*
X21493991Y-6516460D01*
X21493991Y-6516460D02*
X21503515Y-6506936D01*
X21503515Y-6506936D02*
X21503515Y-6525984D01*
X21636848Y-6325984D02*
X21655896Y-6325984D01*
X21655896Y-6325984D02*
X21674944Y-6335508D01*
X21674944Y-6335508D02*
X21684468Y-6345031D01*
X21684468Y-6345031D02*
X21693991Y-6364079D01*
X21693991Y-6364079D02*
X21703515Y-6402174D01*
X21703515Y-6402174D02*
X21703515Y-6449793D01*
X21703515Y-6449793D02*
X21693991Y-6487888D01*
X21693991Y-6487888D02*
X21684468Y-6506936D01*
X21684468Y-6506936D02*
X21674944Y-6516460D01*
X21674944Y-6516460D02*
X21655896Y-6525984D01*
X21655896Y-6525984D02*
X21636848Y-6525984D01*
X21636848Y-6525984D02*
X21617801Y-6516460D01*
X21617801Y-6516460D02*
X21608277Y-6506936D01*
X21608277Y-6506936D02*
X21598753Y-6487888D01*
X21598753Y-6487888D02*
X21589229Y-6449793D01*
X21589229Y-6449793D02*
X21589229Y-6402174D01*
X21589229Y-6402174D02*
X21598753Y-6364079D01*
X21598753Y-6364079D02*
X21608277Y-6345031D01*
X21608277Y-6345031D02*
X21617801Y-6335508D01*
X21617801Y-6335508D02*
X21636848Y-6325984D01*
X21779706Y-6345031D02*
X21789229Y-6335508D01*
X21789229Y-6335508D02*
X21808277Y-6325984D01*
X21808277Y-6325984D02*
X21855896Y-6325984D01*
X21855896Y-6325984D02*
X21874944Y-6335508D01*
X21874944Y-6335508D02*
X21884468Y-6345031D01*
X21884468Y-6345031D02*
X21893991Y-6364079D01*
X21893991Y-6364079D02*
X21893991Y-6383127D01*
X21893991Y-6383127D02*
X21884468Y-6411698D01*
X21884468Y-6411698D02*
X21770182Y-6525984D01*
X21770182Y-6525984D02*
X21893991Y-6525984D01*
X21989229Y-6525984D02*
X22027325Y-6525984D01*
X22027325Y-6525984D02*
X22046372Y-6516460D01*
X22046372Y-6516460D02*
X22055896Y-6506936D01*
X22055896Y-6506936D02*
X22074944Y-6478365D01*
X22074944Y-6478365D02*
X22084468Y-6440269D01*
X22084468Y-6440269D02*
X22084468Y-6364079D01*
X22084468Y-6364079D02*
X22074944Y-6345031D01*
X22074944Y-6345031D02*
X22065420Y-6335508D01*
X22065420Y-6335508D02*
X22046372Y-6325984D01*
X22046372Y-6325984D02*
X22008277Y-6325984D01*
X22008277Y-6325984D02*
X21989229Y-6335508D01*
X21989229Y-6335508D02*
X21979706Y-6345031D01*
X21979706Y-6345031D02*
X21970182Y-6364079D01*
X21970182Y-6364079D02*
X21970182Y-6411698D01*
X21970182Y-6411698D02*
X21979706Y-6430746D01*
X21979706Y-6430746D02*
X21989229Y-6440269D01*
X21989229Y-6440269D02*
X22008277Y-6449793D01*
X22008277Y-6449793D02*
X22046372Y-6449793D01*
X22046372Y-6449793D02*
X22065420Y-6440269D01*
X22065420Y-6440269D02*
X22074944Y-6430746D01*
X22074944Y-6430746D02*
X22084468Y-6411698D01*
X22179706Y-6525984D02*
X22217801Y-6525984D01*
X22217801Y-6525984D02*
X22236849Y-6516460D01*
X22236849Y-6516460D02*
X22246372Y-6506936D01*
X22246372Y-6506936D02*
X22265420Y-6478365D01*
X22265420Y-6478365D02*
X22274944Y-6440269D01*
X22274944Y-6440269D02*
X22274944Y-6364079D01*
X22274944Y-6364079D02*
X22265420Y-6345031D01*
X22265420Y-6345031D02*
X22255896Y-6335508D01*
X22255896Y-6335508D02*
X22236849Y-6325984D01*
X22236849Y-6325984D02*
X22198753Y-6325984D01*
X22198753Y-6325984D02*
X22179706Y-6335508D01*
X22179706Y-6335508D02*
X22170182Y-6345031D01*
X22170182Y-6345031D02*
X22160658Y-6364079D01*
X22160658Y-6364079D02*
X22160658Y-6411698D01*
X22160658Y-6411698D02*
X22170182Y-6430746D01*
X22170182Y-6430746D02*
X22179706Y-6440269D01*
X22179706Y-6440269D02*
X22198753Y-6449793D01*
X22198753Y-6449793D02*
X22236849Y-6449793D01*
X22236849Y-6449793D02*
X22255896Y-6440269D01*
X22255896Y-6440269D02*
X22265420Y-6430746D01*
X22265420Y-6430746D02*
X22274944Y-6411698D01*
X22351134Y-6325984D02*
X22351134Y-6364079D01*
X22427325Y-6325984D02*
X22427325Y-6364079D01*
X22722563Y-6602174D02*
X22713039Y-6592650D01*
X22713039Y-6592650D02*
X22693991Y-6564079D01*
X22693991Y-6564079D02*
X22684468Y-6545031D01*
X22684468Y-6545031D02*
X22674944Y-6516460D01*
X22674944Y-6516460D02*
X22665420Y-6468841D01*
X22665420Y-6468841D02*
X22665420Y-6430746D01*
X22665420Y-6430746D02*
X22674944Y-6383127D01*
X22674944Y-6383127D02*
X22684468Y-6354555D01*
X22684468Y-6354555D02*
X22693991Y-6335508D01*
X22693991Y-6335508D02*
X22713039Y-6306936D01*
X22713039Y-6306936D02*
X22722563Y-6297412D01*
X22827325Y-6411698D02*
X22808277Y-6402174D01*
X22808277Y-6402174D02*
X22798753Y-6392650D01*
X22798753Y-6392650D02*
X22789229Y-6373603D01*
X22789229Y-6373603D02*
X22789229Y-6364079D01*
X22789229Y-6364079D02*
X22798753Y-6345031D01*
X22798753Y-6345031D02*
X22808277Y-6335508D01*
X22808277Y-6335508D02*
X22827325Y-6325984D01*
X22827325Y-6325984D02*
X22865420Y-6325984D01*
X22865420Y-6325984D02*
X22884468Y-6335508D01*
X22884468Y-6335508D02*
X22893991Y-6345031D01*
X22893991Y-6345031D02*
X22903515Y-6364079D01*
X22903515Y-6364079D02*
X22903515Y-6373603D01*
X22903515Y-6373603D02*
X22893991Y-6392650D01*
X22893991Y-6392650D02*
X22884468Y-6402174D01*
X22884468Y-6402174D02*
X22865420Y-6411698D01*
X22865420Y-6411698D02*
X22827325Y-6411698D01*
X22827325Y-6411698D02*
X22808277Y-6421222D01*
X22808277Y-6421222D02*
X22798753Y-6430746D01*
X22798753Y-6430746D02*
X22789229Y-6449793D01*
X22789229Y-6449793D02*
X22789229Y-6487888D01*
X22789229Y-6487888D02*
X22798753Y-6506936D01*
X22798753Y-6506936D02*
X22808277Y-6516460D01*
X22808277Y-6516460D02*
X22827325Y-6525984D01*
X22827325Y-6525984D02*
X22865420Y-6525984D01*
X22865420Y-6525984D02*
X22884468Y-6516460D01*
X22884468Y-6516460D02*
X22893991Y-6506936D01*
X22893991Y-6506936D02*
X22903515Y-6487888D01*
X22903515Y-6487888D02*
X22903515Y-6449793D01*
X22903515Y-6449793D02*
X22893991Y-6430746D01*
X22893991Y-6430746D02*
X22884468Y-6421222D01*
X22884468Y-6421222D02*
X22865420Y-6411698D01*
X23141610Y-6525984D02*
X23141610Y-6325984D01*
X23227325Y-6525984D02*
X23227325Y-6421222D01*
X23227325Y-6421222D02*
X23217801Y-6402174D01*
X23217801Y-6402174D02*
X23198753Y-6392650D01*
X23198753Y-6392650D02*
X23170182Y-6392650D01*
X23170182Y-6392650D02*
X23151134Y-6402174D01*
X23151134Y-6402174D02*
X23141610Y-6411698D01*
X23351134Y-6525984D02*
X23332087Y-6516460D01*
X23332087Y-6516460D02*
X23322563Y-6506936D01*
X23322563Y-6506936D02*
X23313039Y-6487888D01*
X23313039Y-6487888D02*
X23313039Y-6430746D01*
X23313039Y-6430746D02*
X23322563Y-6411698D01*
X23322563Y-6411698D02*
X23332087Y-6402174D01*
X23332087Y-6402174D02*
X23351134Y-6392650D01*
X23351134Y-6392650D02*
X23379706Y-6392650D01*
X23379706Y-6392650D02*
X23398753Y-6402174D01*
X23398753Y-6402174D02*
X23408277Y-6411698D01*
X23408277Y-6411698D02*
X23417801Y-6430746D01*
X23417801Y-6430746D02*
X23417801Y-6487888D01*
X23417801Y-6487888D02*
X23408277Y-6506936D01*
X23408277Y-6506936D02*
X23398753Y-6516460D01*
X23398753Y-6516460D02*
X23379706Y-6525984D01*
X23379706Y-6525984D02*
X23351134Y-6525984D01*
X23532087Y-6525984D02*
X23513039Y-6516460D01*
X23513039Y-6516460D02*
X23503515Y-6497412D01*
X23503515Y-6497412D02*
X23503515Y-6325984D01*
X23684468Y-6516460D02*
X23665420Y-6525984D01*
X23665420Y-6525984D02*
X23627325Y-6525984D01*
X23627325Y-6525984D02*
X23608277Y-6516460D01*
X23608277Y-6516460D02*
X23598753Y-6497412D01*
X23598753Y-6497412D02*
X23598753Y-6421222D01*
X23598753Y-6421222D02*
X23608277Y-6402174D01*
X23608277Y-6402174D02*
X23627325Y-6392650D01*
X23627325Y-6392650D02*
X23665420Y-6392650D01*
X23665420Y-6392650D02*
X23684468Y-6402174D01*
X23684468Y-6402174D02*
X23693991Y-6421222D01*
X23693991Y-6421222D02*
X23693991Y-6440269D01*
X23693991Y-6440269D02*
X23598753Y-6459317D01*
X23770182Y-6516460D02*
X23789230Y-6525984D01*
X23789230Y-6525984D02*
X23827325Y-6525984D01*
X23827325Y-6525984D02*
X23846372Y-6516460D01*
X23846372Y-6516460D02*
X23855896Y-6497412D01*
X23855896Y-6497412D02*
X23855896Y-6487888D01*
X23855896Y-6487888D02*
X23846372Y-6468841D01*
X23846372Y-6468841D02*
X23827325Y-6459317D01*
X23827325Y-6459317D02*
X23798753Y-6459317D01*
X23798753Y-6459317D02*
X23779706Y-6449793D01*
X23779706Y-6449793D02*
X23770182Y-6430746D01*
X23770182Y-6430746D02*
X23770182Y-6421222D01*
X23770182Y-6421222D02*
X23779706Y-6402174D01*
X23779706Y-6402174D02*
X23798753Y-6392650D01*
X23798753Y-6392650D02*
X23827325Y-6392650D01*
X23827325Y-6392650D02*
X23846372Y-6402174D01*
X23922563Y-6602174D02*
X23932087Y-6592650D01*
X23932087Y-6592650D02*
X23951134Y-6564079D01*
X23951134Y-6564079D02*
X23960658Y-6545031D01*
X23960658Y-6545031D02*
X23970182Y-6516460D01*
X23970182Y-6516460D02*
X23979706Y-6468841D01*
X23979706Y-6468841D02*
X23979706Y-6430746D01*
X23979706Y-6430746D02*
X23970182Y-6383127D01*
X23970182Y-6383127D02*
X23960658Y-6354555D01*
X23960658Y-6354555D02*
X23951134Y-6335508D01*
X23951134Y-6335508D02*
X23932087Y-6306936D01*
X23932087Y-6306936D02*
X23922563Y-6297412D01*
M02*
